<?xml version="1.0" encoding="UTF-8" standalone="no"?>
<!-- Created with Inkscape (http://www.inkscape.org/) -->

<svg
   version="1.1"
   id="svg1"
   width="894.53802"
   height="826.828"
   viewBox="0 0 894.53804 826.828"
   xmlns="http://www.w3.org/2000/svg"
   xmlns:svg="http://www.w3.org/2000/svg">
  <defs
     id="defs1" />
  <g
     id="g1"
     transform="translate(-93.304812,-63.65816)">
    <g
       id="g4"
       transform="matrix(38.52592,0,0,38.52592,-32617.516,-34224.779)">
      <path
         style="fill:#333333;stroke:none;stroke-width:0.710417"
         id="rect4-2-6-0"
         width="1.5"
         height="1.5"
         x="869.48138"
         y="900.09857"
         d="m 869.50638,900.09857 h 1.45 a 0.025,0.025 45 0 1 0.025,0.025 v 1.45 a 0.025,0.025 135 0 1 -0.025,0.025 h -1.45 a 0.025,0.025 45 0 1 -0.025,-0.025 v -1.45 a 0.025,0.025 135 0 1 0.025,-0.025 z" />
      <path
         id="rect4-2-6-4"
         style="fill:#333333;stroke:none;stroke-width:0.710417"
         d="m 865.67521,899.14805 v 0.97437 a 0.025,0.025 135 0 1 -0.025,0.025 h -0.94826 a 0.025,0.025 135 0 0 -0.025,0.025 v 1.44995 a 0.025,0.025 45 0 0 0.025,0.025 h 1.45 a 0.025,0.025 135 0 0 0.025,-0.025 v -0.97432 a 0.025,0.025 135 0 1 0.025,-0.025 h 0.94827 a 0.025,0.025 135 0 0 0.025,-0.025 v -1.45 a 0.025,0.025 45 0 0 -0.025,-0.025 h -1.45001 a 0.025,0.025 135 0 0 -0.025,0.025 z" />
      <path
         id="rect4-2-6-6"
         style="fill:#333333;stroke:none;stroke-width:0.710417"
         d="m 857.9649,901.09814 c 5e-5,1.30904 -9e-5,2.61809 5e-5,3.92713 0,0.0138 -0.0112,0.025 -0.025,0.025 h -0.80976 a 0.025,0.025 135 0 0 -0.025,0.025 v 0.91972 a 0.025,0.025 135 0 1 -0.025,0.025 h -0.95571 a 0.025,0.025 135 0 0 -0.025,0.025 v 1.45 a 0.025,0.025 45 0 0 0.025,0.025 h 1.45 a 0.025,0.025 135 0 0 0.025,-0.025 v -0.91972 a 0.025,0.025 135 0 1 0.025,-0.025 h 0.95572 a 0.025,0.025 135 0 0 0.025,-0.025 v -0.9766 a 0.025,0.025 135 0 1 0.025,-0.025 h 1.30972 a 0.025,0.025 45 0 1 0.025,0.025 v 0.9766 a 0.025,0.025 45 0 0 0.025,0.025 h 1.45001 a 0.025,0.025 135 0 0 0.025,-0.025 v -1.0016 h 5e-5 v -1.475 a 0.025,0.025 45 0 0 -0.025,-0.025 h -1.95008 a 0.025,0.025 45 0 1 -0.025,-0.025 v -2.90053 a 0.025,0.025 45 0 0 -0.025,-0.025 h -1.45 c -0.0138,0 -0.025,0.0112 -0.025,0.025 z" />
      <path
         style="fill:#333333;stroke:none;stroke-width:0.710417"
         id="rect4-2-6"
         width="1.5"
         height="1.5"
         x="858.92542"
         y="906.92017"
         d="m 858.95042,906.92017 h 1.45 a 0.025,0.025 45 0 1 0.025,0.025 v 1.45 a 0.025,0.025 135 0 1 -0.025,0.025 h -1.45 a 0.025,0.025 45 0 1 -0.025,-0.025 v -1.45 a 0.025,0.025 135 0 1 0.025,-0.025 z" />
      <path
         style="fill:#333333;stroke:none;stroke-width:0.710417"
         id="rect4-2-0"
         width="1.5"
         height="1.5"
         x="857.104"
         y="908.67334"
         d="m 857.129,908.67334 h 1.45 a 0.025,0.025 45 0 1 0.025,0.025 v 1.45 a 0.025,0.025 135 0 1 -0.025,0.025 h -1.45 a 0.025,0.025 45 0 1 -0.025,-0.025 v -1.45 a 0.025,0.025 135 0 1 0.025,-0.025 z" />
      <path
         style="fill:#333333;stroke:none;stroke-width:0.710417"
         id="rect4-2-4"
         width="1.5"
         height="1.5"
         x="855.19489"
         y="907.95496"
         d="m 855.21989,907.95496 h 1.45 a 0.025,0.025 45 0 1 0.025,0.025 v 1.45 a 0.025,0.025 135 0 1 -0.025,0.025 h -1.45 a 0.025,0.025 45 0 1 -0.025,-0.025 v -1.45 a 0.025,0.025 135 0 1 0.025,-0.025 z" />
      <path
         style="fill:#333333;stroke:none;stroke-width:0.710417"
         id="rect4-2"
         width="1.5"
         height="1.5"
         x="856.05096"
         y="900.14697"
         d="m 856.07596,900.14697 h 1.45 a 0.025,0.025 45 0 1 0.025,0.025 v 1.45 a 0.025,0.025 135 0 1 -0.025,0.025 h -1.45 a 0.025,0.025 45 0 1 -0.025,-0.025 v -1.45 a 0.025,0.025 135 0 1 0.025,-0.025 z" />
      <path
         id="rect4-6"
         style="fill:#333333;stroke:none;stroke-width:0.710417"
         d="m 853.18377,895.33137 v 3.45003 a 0.025,0.025 45 0 0 0.025,0.025 h 0.95227 a 0.025,0.025 45 0 1 0.025,0.025 v 0.9217 a 0.025,0.025 45 0 0 0.025,0.025 h 1.45001 a 0.025,0.025 135 0 0 0.025,-0.025 v -1.45001 a 0.025,0.025 45 0 0 -0.025,-0.025 h -0.95227 a 0.025,0.025 45 0 1 -0.025,-0.025 v -2.92172 a 0.025,0.025 45 0 0 -0.025,-0.025 h -1.45001 a 0.025,0.025 135 0 0 -0.025,0.025 z" />
      <path
         style="fill:#333333;stroke:none;stroke-width:0.917149;stroke-dasharray:none"
         id="rect4-1-3"
         width="1.5"
         height="2.5"
         x="850.35791"
         y="899.13092"
         d="m 850.38291,899.13092 h 1.45 a 0.025,0.025 45 0 1 0.025,0.025 v 2.45 a 0.025,0.025 135 0 1 -0.025,0.025 h -1.45 a 0.025,0.025 45 0 1 -0.025,-0.025 v -2.45 a 0.025,0.025 135 0 1 0.025,-0.025 z" />
      <path
         style="fill:#333333;stroke:none;stroke-width:0.710417"
         id="rect4"
         width="1.5"
         height="1.5"
         x="853.17297"
         y="892.52545"
         d="m 853.19797,892.52545 h 1.45 a 0.025,0.025 45 0 1 0.025,0.025 v 1.45 a 0.025,0.025 135 0 1 -0.025,0.025 h -1.45 a 0.025,0.025 45 0 1 -0.025,-0.025 v -1.45 a 0.025,0.025 135 0 1 0.025,-0.025 z"
         transform="translate(0.01164891,-1.2180611)" />
    </g>
  </g>
</svg>
