<?xml version="1.0" encoding="UTF-8" standalone="no"?>
<!-- Created with Inkscape (http://www.inkscape.org/) -->

<svg
   width="522.71503"
   height="530.10199"
   viewBox="0 0 522.71502 530.10199"
   version="1.1"
   id="svg5"
   inkscape:version="1.3.1 (91b66b0783, 2023-11-16, custom)"
   sodipodi:docname="draw_V02.svg"
   xmlns:inkscape="http://www.inkscape.org/namespaces/inkscape"
   xmlns:sodipodi="http://sodipodi.sourceforge.net/DTD/sodipodi-0.dtd"
   xmlns="http://www.w3.org/2000/svg"
   xmlns:svg="http://www.w3.org/2000/svg">
  <sodipodi:namedview
     id="namedview7"
     pagecolor="#505050"
     bordercolor="#eeeeee"
     borderopacity="1"
     inkscape:showpageshadow="0"
     inkscape:pageopacity="0"
     inkscape:pagecheckerboard="0"
     inkscape:deskcolor="#505050"
     inkscape:document-units="px"
     showgrid="false"
     showguides="true"
     inkscape:zoom="1.4142136"
     inkscape:cx="380.06989"
     inkscape:cy="302.6417"
     inkscape:window-width="2524"
     inkscape:window-height="1367"
     inkscape:window-x="15"
     inkscape:window-y="52"
     inkscape:window-maximized="0"
     inkscape:current-layer="layer1">
    <sodipodi:guide
       position="261.35765,360.52281"
       orientation="1,0"
       id="guide2880"
       inkscape:locked="false" />
    <sodipodi:guide
       position="702.9298,373.96959"
       orientation="0,-1"
       id="guide2882"
       inkscape:locked="false" />
    <sodipodi:guide
       position="80.13234,25.003422"
       orientation="0,-1"
       id="guide2906"
       inkscape:locked="false" />
    <sodipodi:guide
       position="27.89684,144.11819"
       orientation="0,-1"
       id="guide2908"
       inkscape:locked="false" />
    <sodipodi:guide
       position="44.42674,274.09499"
       orientation="0,-1"
       id="guide2910"
       inkscape:locked="false" />
    <sodipodi:guide
       position="307.91835,454.97769"
       orientation="0,-1"
       id="guide2912"
       inkscape:locked="false" />
    <sodipodi:guide
       position="25.000004,266.35116"
       orientation="1,0"
       id="guide4"
       inkscape:locked="false" />
    <sodipodi:guide
       position="455.09653,505.10199"
       orientation="0,-1"
       id="guide5"
       inkscape:locked="false" />
    <sodipodi:guide
       position="499.31578,-191.85006"
       orientation="1,0"
       id="guide6"
       inkscape:locked="false" />
    <sodipodi:guide
       position="262.33661,25.000013"
       orientation="0,-1"
       id="guide7"
       inkscape:locked="false" />
    <inkscape:grid
       id="grid8"
       units="px"
       originx="0"
       originy="0"
       spacingx="0.99999999"
       spacingy="1"
       empcolor="#0099e5"
       empopacity="0.30196078"
       color="#0099e5"
       opacity="0.14901961"
       empspacing="5"
       dotted="false"
       gridanglex="30"
       gridanglez="30"
       visible="false" />
  </sodipodi:namedview>
  <defs
     id="defs2">
    <inkscape:path-effect
       effect="fillet_chamfer"
       id="path-effect14"
       is_visible="true"
       lpeversion="1"
       nodesatellites_param="F,0,0,1,0,0,0,1 @ F,0,0,1,0,0,0,1 @ F,0,0,1,0,2,0,1 @ F,0,0,1,0,0,0,1 @ F,0,0,1,0,0,0,1 @ F,0,0,1,0,0,0,1 @ F,0,0,1,0,2,0,1 @ F,0,0,1,0,2,0,1 @ F,0,0,1,0,0,0,1"
       radius="0"
       unit="px"
       method="auto"
       mode="F"
       chamfer_steps="1"
       flexible="false"
       use_knot_distance="true"
       apply_no_radius="true"
       apply_with_radius="true"
       only_selected="false"
       hide_knots="false" />
    <inkscape:path-effect
       effect="fillet_chamfer"
       id="path-effect13"
       is_visible="true"
       lpeversion="1"
       nodesatellites_param="F,0,0,1,0,2,0,1 @ F,0,0,1,0,2,0,1 @ F,0,0,1,0,2,0,1 @ F,0,0,1,0,2,0,1 | F,0,0,1,0,2,0,1 @ F,0,0,1,0,2,0,1 @ F,0,0,1,0,2,0,1 @ F,0,0,1,0,2,0,1"
       radius="0"
       unit="px"
       method="auto"
       mode="F"
       chamfer_steps="1"
       flexible="false"
       use_knot_distance="true"
       apply_no_radius="true"
       apply_with_radius="true"
       only_selected="false"
       hide_knots="false" />
    <inkscape:path-effect
       effect="fillet_chamfer"
       id="path-effect12"
       is_visible="true"
       lpeversion="1"
       nodesatellites_param="F,0,0,1,0,0,0,1 @ F,0,0,1,0,2,0,1 @ F,0,0,1,0,2,0,1 @ F,0,0,1,0,2,0,1 @ F,0,0,1,0,2,0,1 @ F,0,0,1,0,2,0,1 @ F,0,0,1,0,0,0,1 @ F,0,0,1,0,0,0,1 @ F,0,0,1,0,0,0,1 @ F,0,0,1,0,0,0,1 @ F,0,0,1,0,2,0,1 @ F,0,0,1,0,2,0,1 @ F,0,0,1,0,2,0,1 @ F,0,0,1,0,2,0,1 @ F,0,0,1,0,2,0,1 @ F,0,0,1,0,0,0,1"
       radius="0"
       unit="px"
       method="auto"
       mode="F"
       chamfer_steps="1"
       flexible="false"
       use_knot_distance="true"
       apply_no_radius="true"
       apply_with_radius="true"
       only_selected="false"
       hide_knots="false" />
    <inkscape:path-effect
       effect="fillet_chamfer"
       id="path-effect11"
       is_visible="true"
       lpeversion="1"
       nodesatellites_param="F,0,0,1,0,0,0,1 @ F,0,0,1,0,0,0,1 @ F,0,0,1,0,0,0,1 @ F,0,0,1,0,0,0,1 @ F,0,0,1,0,0,0,1 @ F,0,0,1,0,0,0,1 @ F,0,0,1,0,0,0,1 @ F,0,0,1,0,0,0,1 @ F,0,0,1,0,0,0,1 @ F,0,0,1,0,0,0,1 @ F,0,0,1,0,0,0,1 @ F,0,0,1,0,0,0,1 @ F,0,0,1,0,0,0,1 @ F,0,0,1,0,0,0,1 @ F,0,0,1,0,0,0,1 @ F,0,0,1,0,0,0,1"
       radius="0"
       unit="px"
       method="auto"
       mode="F"
       chamfer_steps="1"
       flexible="false"
       use_knot_distance="true"
       apply_no_radius="true"
       apply_with_radius="true"
       only_selected="false"
       hide_knots="false" />
    <inkscape:path-effect
       effect="fillet_chamfer"
       id="path-effect5"
       is_visible="true"
       lpeversion="1"
       nodesatellites_param="F,0,0,1,0,2,0,1 @ F,0,0,1,0,2,0,1 @ F,0,0,1,0,2,0,1 @ F,0,0,1,0,2,0,1 | F,0,0,1,0,2,0,1 @ F,0,0,1,0,2,0,1 @ F,0,0,1,0,2,0,1 @ F,0,0,1,0,2,0,1"
       radius="0"
       unit="px"
       method="auto"
       mode="F"
       chamfer_steps="1"
       flexible="false"
       use_knot_distance="true"
       apply_no_radius="true"
       apply_with_radius="true"
       only_selected="false"
       hide_knots="false" />
    <inkscape:path-effect
       effect="fillet_chamfer"
       id="path-effect4"
       is_visible="true"
       lpeversion="1"
       nodesatellites_param="F,0,0,1,0,0,0,1 @ F,0,0,1,0,0,0,1 @ F,0,0,1,0,0,0,1 @ F,0,0,1,0,0,0,1 @ F,0,0,1,0,0,0,1 @ F,0,0,1,0,0,0,1 @ F,0,0,1,0,0,0,1 @ F,0,0,1,0,0,0,1 @ F,0,0,1,0,0,0,1 @ F,0,0,1,0,10,0,1 @ F,0,0,1,0,0,0,1 @ F,0,0,1,0,0,0,1 @ F,0,0,1,0,0,0,1 @ F,0,0,1,0,0,0,1 @ F,0,0,1,0,0,0,1 @ F,0,0,1,0,0,0,1 @ F,0,0,1,0,0,0,1 @ F,0,0,1,0,10,0,1 @ F,0,0,1,0,0,0,1 @ F,0,0,1,0,0,0,1 @ F,0,0,1,0,0,0,1 @ F,0,0,1,0,0,0,1 @ F,0,0,1,0,0,0,1 @ F,0,0,1,0,0,0,1 @ F,0,0,1,0,0,0,1 @ F,0,0,1,0,0,0,1 @ F,0,0,1,0,0,0,1 @ F,0,0,1,0,0,0,1 @ F,0,0,1,0,0,0,1 @ F,0,0,1,0,10,0,1 @ F,0,0,1,0,0,0,1 @ F,0,0,1,0,0,0,1 @ F,0,0,1,0,0,0,1 @ F,0,0,1,0,0,0,1 @ F,0,0,1,0,0,0,1 @ F,0,0,1,0,0,0,1 @ F,0,0,1,0,0,0,1 @ F,0,0,1,0,10,0,1 @ F,0,0,1,0,0,0,1 @ F,0,0,1,0,0,0,1 @ F,0,0,1,0,0,0,1 @ F,0,0,1,0,0,0,1 @ F,0,0,1,0,0,0,1 @ F,0,0,1,0,0,0,1 @ F,0,0,1,0,0,0,1 @ F,0,0,1,0,10,0,1 @ F,0,0,1,0,0,0,1 @ F,0,0,1,0,0,0,1 @ F,0,0,1,0,0,0,1 @ F,0,0,1,0,0,0,1 @ F,0,0,1,0,0,0,1 @ F,0,0,1,0,0,0,1 @ F,0,0,1,0,0,0,1 @ F,0,0,1,0,10,0,1 @ F,0,0,1,0,0,0,1 @ F,0,0,1,0,0,0,1 @ F,0,0,1,0,0,0,1 @ F,0,0,1,0,0,0,1 @ F,0,0,1,0,0,0,1 @ F,0,0,1,0,0,0,1 @ F,0,0,1,0,0,0,1 @ F,0,0,1,0,0,0,1 @ F,0,0,1,0,10,0,1 @ F,0,0,1,0,0,0,1 @ F,0,0,1,0,10,0,1 @ F,0,0,1,0,0,0,1 @ F,0,0,1,0,0,0,1 @ F,0,0,1,0,0,0,1 @ F,0,0,1,0,0,0,1 @ F,0,0,1,0,0,0,1 @ F,0,0,1,0,10,0,1 @ F,0,0,1,0,0,0,1 @ F,0,0,1,0,0,0,1 @ F,0,0,1,0,0,0,1 @ F,0,0,1,0,0,0,1 @ F,0,0,1,0,0,0,1 @ F,0,0,1,0,0,0,1 @ F,0,0,1,0,10,0,1 @ F,0,0,1,0,0,0,1 @ F,0,0,1,0,0,0,1 | F,0,0,1,0,0,0,1 @ F,0,0,1,0,0,0,1 @ F,0,0,1,0,0,0,1 @ F,0,0,1,0,0,0,1 | F,0,0,1,0,0,0,1 @ F,0,0,1,0,0,0,1 @ F,0,0,1,0,0,0,1 @ F,0,0,1,0,0,0,1 | F,0,0,1,0,0,0,1 @ F,0,0,1,0,0,0,1"
       radius="0"
       unit="px"
       method="auto"
       mode="F"
       chamfer_steps="1"
       flexible="false"
       use_knot_distance="true"
       apply_no_radius="true"
       apply_with_radius="true"
       only_selected="false"
       hide_knots="false" />
    <inkscape:path-effect
       effect="mirror_symmetry"
       start_point="1227.9639,166.32106"
       end_point="1227.9639,1036.3211"
       center_point="1227.9639,601.32108"
       id="path-effect3"
       is_visible="true"
       lpeversion="1.2"
       lpesatellites=""
       mode="free"
       discard_orig_path="false"
       fuse_paths="false"
       oposite_fuse="false"
       split_items="false"
       split_open="false"
       link_styles="false" />
    <inkscape:path-effect
       effect="mirror_symmetry"
       start_point="1224.9637,539.32105"
       end_point="1224.9637,834.69591"
       center_point="1224.9637,687.00848"
       id="path-effect2"
       is_visible="true"
       lpeversion="1.2"
       lpesatellites=""
       mode="free"
       discard_orig_path="false"
       fuse_paths="false"
       oposite_fuse="false"
       split_items="false"
       split_open="false"
       link_styles="false" />
    <inkscape:path-effect
       effect="fillet_chamfer"
       id="path-effect1"
       is_visible="true"
       lpeversion="1"
       nodesatellites_param="F,0,0,1,0,0,0,1 @ F,0,0,1,0,0,0,1 @ F,0,0,1,0,0,0,1 @ F,0,0,1,0,0,0,1 @ F,0,0,1,0,0,0,1 @ F,0,0,1,0,0,0,1 @ F,0,0,1,0,0,0,1 @ F,0,0,1,0,0,0,1 @ F,0,0,1,0,0,0,1 @ F,0,0,1,0,0,0,1 @ F,0,0,1,0,2,0,1 @ F,0,0,1,0,0,0,1 @ F,0,0,1,0,0,0,1 @ F,0,0,1,0,0,0,1 @ F,0,0,1,0,0,0,1 @ F,0,0,1,0,0,0,1 @ F,0,0,1,0,2,0,1 @ F,0,0,1,0,2,0,1 @ F,0,0,1,0,0,0,1 @ F,0,0,1,0,0,0,1 @ F,0,0,1,0,0,0,1 @ F,0,0,1,0,0,0,1 @ F,0,0,1,0,0,0,1 @ F,0,0,1,0,2,0,1 @ F,0,0,1,0,2,0,1 @ F,0,0,1,0,0,0,1 @ F,0,0,1,0,0,0,1 @ F,0,0,1,0,0,0,1 @ F,0,0,1,0,0,0,1 @ F,0,0,1,0,0,0,1 @ F,0,0,1,0,0,0,1 @ F,0,0,1,0,2,0,1 @ F,0,0,1,0,2,0,1 @ F,0,0,1,0,0,0,1 @ F,0,0,1,0,0,0,1 @ F,0,0,1,0,0,0,1 @ F,0,0,1,0,0,0,1"
       radius="0"
       unit="px"
       method="auto"
       mode="F"
       chamfer_steps="1"
       flexible="false"
       use_knot_distance="true"
       apply_no_radius="true"
       apply_with_radius="true"
       only_selected="false"
       hide_knots="false" />
    <inkscape:path-effect
       effect="fillet_chamfer"
       id="path-effect23"
       is_visible="true"
       lpeversion="1"
       nodesatellites_param="F,0,0,1,0,0,0,1 @ F,0,0,1,0,0,0,1 @ F,0,0,1,0,0,0,1 @ F,0,0,1,0,0,0,1 @ F,0,0,1,0,0,0,1 @ F,0,0,1,0,0,0,1 @ F,0,0,1,0,0,0,1 @ F,0,0,1,0,0,0,1 @ F,0,0,1,0,0,0,1 @ F,0,0,1,0,0,0,1 @ F,0,0,1,0,0,0,1 @ F,0,0,1,0,0,0,1 @ F,0,0,1,0,0,0,1 @ F,0,0,1,0,0,0,1 @ F,0,0,1,0,0,0,1 @ F,0,0,1,0,0,0,1 @ F,0,0,1,0,0,0,1 @ F,0,0,1,0,0,0,1 @ F,0,0,1,0,0,0,1 @ F,0,0,1,0,0,0,1 @ F,0,0,1,0,0,0,1 @ F,0,0,1,0,0,0,1 @ F,0,0,1,0,0,0,1 @ F,0,0,1,0,0,0,1 @ F,0,0,1,0,0,0,1 @ F,0,0,1,0,0,0,1 @ F,0,0,1,0,0,0,1 @ F,0,0,1,0,0,0,1 @ F,0,0,1,0,0,0,1"
       radius="0"
       unit="px"
       method="auto"
       mode="F"
       chamfer_steps="1"
       flexible="false"
       use_knot_distance="true"
       apply_no_radius="true"
       apply_with_radius="true"
       only_selected="false"
       hide_knots="false" />
    <clipPath
       clipPathUnits="userSpaceOnUse"
       id="clipPath15">
      <rect
         style="fill:#000000"
         id="rect15"
         width="405"
         height="870"
         x="1224.9639"
         y="230.32106"
         ry="0.078125"
         rx="0" />
    </clipPath>
    <clipPath
       clipPathUnits="userSpaceOnUse"
       id="clipPath16">
      <rect
         style="fill:#000000"
         id="rect16"
         width="405"
         height="870"
         x="1224.9639"
         y="230.32106"
         ry="0.078125"
         rx="0" />
    </clipPath>
    <clipPath
       clipPathUnits="userSpaceOnUse"
       id="clipPath17">
      <rect
         style="fill:#000000"
         id="rect17"
         width="405"
         height="870"
         x="1224.9639"
         y="230.32106"
         ry="0.078125"
         rx="0" />
    </clipPath>
    <clipPath
       clipPathUnits="userSpaceOnUse"
       id="clipPath18">
      <rect
         style="fill:#000000"
         id="rect18"
         width="405"
         height="870"
         x="1224.9639"
         y="230.32106"
         ry="0.078125"
         rx="0" />
    </clipPath>
    <clipPath
       clipPathUnits="userSpaceOnUse"
       id="clipPath19">
      <rect
         style="fill:#000000"
         id="rect19"
         width="405"
         height="870"
         x="1224.9639"
         y="230.32106"
         ry="0.078125"
         rx="0" />
    </clipPath>
    <clipPath
       clipPathUnits="userSpaceOnUse"
       id="clipPath20">
      <rect
         style="fill:#000000"
         id="rect20"
         width="405"
         height="870"
         x="1224.9639"
         y="230.32106"
         ry="0.078125"
         rx="0" />
    </clipPath>
    <clipPath
       clipPathUnits="userSpaceOnUse"
       id="clipPath21">
      <rect
         style="fill:#000000"
         id="rect21"
         width="405"
         height="870"
         x="1224.9639"
         y="230.32106"
         ry="0.078125"
         rx="0" />
    </clipPath>
    <clipPath
       clipPathUnits="userSpaceOnUse"
       id="clipPath22">
      <rect
         style="fill:#000000"
         id="rect22"
         width="405"
         height="870"
         x="1224.9639"
         y="230.32106"
         ry="0.078125"
         rx="0" />
    </clipPath>
    <clipPath
       clipPathUnits="userSpaceOnUse"
       id="clipPath23">
      <path
         id="rect23"
         d="m 1225.042,230.32106 h 404.8437 c 0.043,0 0.078,0.0348 0.078,0.0781 v 869.84374 c 0,0.043 -0.035,0.078 -0.078,0.078 H 1225.042 c -0.043,0 -0.078,-0.035 -0.078,-0.078 V 230.39919 c 0,-0.0433 0.035,-0.0781 0.078,-0.0781 z m -0.1566,0 -404.8437,0 c -0.043,0 -0.078,0.0348 -0.078,0.0781 l 0,869.84374 c 0,0.043 0.035,0.078 0.078,0.078 l 404.8437,0 c 0.043,0 0.078,-0.035 0.078,-0.078 l 0,-869.84371 c 0,-0.0433 -0.035,-0.0781 -0.078,-0.0781 z"
         style="fill:#000000" />
    </clipPath>
    <clipPath
       clipPathUnits="userSpaceOnUse"
       id="clipPath22-9">
      <path
         id="rect22-0"
         d="m 1225.042,230.32106 h 404.8437 c 0.043,0 0.078,0.0348 0.078,0.0781 v 869.84374 c 0,0.043 -0.035,0.078 -0.078,0.078 H 1225.042 c -0.043,0 -0.078,-0.035 -0.078,-0.078 V 230.39919 c 0,-0.0433 0.035,-0.0781 0.078,-0.0781 z"
         style="fill:#000000" />
    </clipPath>
    <inkscape:path-effect
       effect="mirror_symmetry"
       start_point="1227.9639,166.32106"
       end_point="1227.9639,1036.3211"
       center_point="1227.9639,601.32108"
       id="path-effect3-5"
       is_visible="true"
       lpeversion="1.2"
       lpesatellites=""
       mode="free"
       discard_orig_path="false"
       fuse_paths="false"
       oposite_fuse="false"
       split_items="false"
       split_open="false"
       link_styles="false" />
    <clipPath
       clipPathUnits="userSpaceOnUse"
       id="clipPath21-7">
      <rect
         style="fill:#000000"
         id="rect21-3"
         width="405"
         height="870"
         x="1224.9639"
         y="230.32106"
         ry="0.078125"
         rx="0" />
    </clipPath>
  </defs>
  <g
     inkscape:groupmode="layer"
     id="layer1"
     inkscape:label="draw">
    <path
       id="rect5"
       style="color:#000000;fill:#000000;stroke-linecap:round;-inkscape-stroke:none"
       d="m 25,-381.33008 h 18.886719 a 2,2 45 0 1 2,2 v 352.210939 a 2,2 45 0 0 2,2 h 54.035161 a 2,2 135 0 0 2,-2 V -379.33008 a 2,2 135 0 1 2,-2 h 283.1582 a 2,2 45 0 1 2,2 v 4.25 h 12.5 v -55.11914 h -12.5 l 0,4.25 a 2,2 135 0 1 -2,2 l -283.1582,0 a 2,2 45 0 1 -2,-2 v -71.36719 a 2,2 45 0 0 -2,-2 H 47.886719 a 2,2 135 0 0 -2,2 v 71.36719 a 2,2 135 0 1 -2,2 H 25 Z"
       transform="rotate(90)"
       inkscape:path-effect="#path-effect12"
       inkscape:original-d="M 25 -381.33008 L 45.886719 -381.33008 L 45.886719 -25.119141 L 103.92188 -25.119141 L 103.92188 -381.33008 L 391.08008 -381.33008 L 391.08008 -375.08008 L 403.58008 -375.08008 L 403.58008 -430.19922 L 391.08008 -430.19922 L 391.08008 -423.94922 L 103.92188 -423.94922 L 103.92188 -499.31641 L 45.886719 -499.31641 L 45.886719 -423.94922 L 25 -423.94922 L 25 -381.33008 z "
       inkscape:label="axidraw" />
    <path
       style="color:#000000;fill:#000000;stroke-linecap:round;-inkscape-stroke:none"
       d="m 25,158.13281 0,344.96485 a 2,2 45 0 0 2,2 l 470.31641,0 a 2,2 135 0 0 2,-2 l 0,-344.96485 a 2,2 45 0 0 -2,-2 H 27 a 2,2 135 0 0 -2,2 z m 14.966797,10.96485 H 484.34961 a 2,2 45 0 1 2,2 v 319.03515 a 2,2 135 0 1 -2,2 H 39.966797 a 2,2 45 0 1 -2,-2 V 171.09766 a 2,2 135 0 1 2,-2 z"
       id="rect7"
       inkscape:path-effect="#path-effect13"
       inkscape:original-d="M 25,156.13281 V 505.09766 H 499.31641 V 156.13281 Z m 12.966797,12.96485 H 486.34961 V 492.13281 H 37.966797 Z"
       inkscape:label="canvas" />
    <path
       style="color:#000000;display:inline;fill:#000000;fill-rule:evenodd;stroke-width:1.66928;stroke-linecap:round;-inkscape-stroke:none"
       d="m 261.66209,468.8778 c -49.06842,9.61028 -101.959,-3.84426 -139.03976,-42.03 -53.539759,-55.13521 -55.382692,-146.71428 1.03613,-200.86067 50.40368,-48.37354 133.76596,-49.84483 182.72342,1.9062 43.20552,45.67084 44.30934,120.83187 -2.78848,164.59185 -40.9363,38.03512 -107.9132,38.76207 -146.46321,-3.70339 -32.86176,-36.19948 -33.21046,-95.01737 4.65411,-128.3382 31.45951,-27.68438 82.15556,-27.64655 110.21529,5.66753 22.50183,26.71545 22.07151,69.37174 -6.78019,92.11152 -21.96701,17.31353 -56.73569,16.46197 -74.02801,-8.10144 -6.06267,-8.6119 -8.66407,-19.28334 -7.38003,-29.61908 1.28401,-10.33573 6.93775,-20.6364 17.28071,-26.37775 6.32302,-3.5099 13.75984,-4.57205 21.0461,-2.91836 7.28629,1.6537 14.93385,7.3353 16.90909,16.3037 0.97949,4.4433 -1.82854,8.83931 -6.27184,9.8187 -4.44331,0.97946 -8.83934,-1.82855 -9.81871,-6.27187 -0.48878,-1.64092 -1.56412,-3.12299 -4.46431,-3.7812 -2.90018,-0.65824 -7.16482,0.0122 -9.40363,1.25499 -5.43913,3.01926 -8.17222,7.91697 -8.92831,14.00308 -0.75609,6.08613 0.95155,13.0575 4.5022,18.10115 11.27746,16.01941 35.22837,16.56888 50.35539,4.64638 20.93033,-16.49647 21.24525,-48.53476 4.38162,-68.55621 -21.695,-25.75751 -61.87569,-25.78162 -86.73034,-3.90953 -30.54633,26.88078 -30.26121,75.23695 -3.34013,104.89238 32.05859,35.31473 88.61176,34.70162 123.04846,2.70548 40.0711,-37.23127 39.12449,-101.99254 2.0356,-141.19774 -42.40039,-44.81982 -115.38356,-43.53304 -159.34849,-1.33891 -49.563351,47.56703 -47.932189,128.77402 -0.62362,177.49233 52.73183,54.30322 142.17316,52.32423 195.64014,-0.10571 1.53048,-1.5008 3.02566,-3.03633 4.48808,-4.60391 3.1045,-3.32825 8.31971,-3.50845 11.64652,-0.40239 3.32598,3.10433 3.50586,8.31708 0.4018,11.64331 -1.6289,1.74598 -3.29623,3.45579 -5.00135,5.12784 -22.44967,22.01422 -50.5132,36.08369 -79.95425,41.84991 z"
       id="path8"
       sodipodi:nodetypes="ssssssssssssscccsssssssssssssccccs"
       inkscape:label="spiral" />
    <path
       id="rect10"
       style="color:#000000;fill:#000000;stroke-linecap:round;-inkscape-stroke:none"
       d="m 360.69922,403.58008 v 0.0195 c -8.46085,3.87484 -12.52816,5.74985 -14.48333,6.65715 -1.00175,0.46486 -0.9964,1.2254 0.007,1.68767 l 14.47654,6.6708 v 0.0195 h 0.041 59.41602 a 2,2 135 0 0 2,-2 v -11.05469 a 2,2 45 0 0 -2,-2 h -59.41602 z"
       inkscape:path-effect="#path-effect14"
       inkscape:original-d="M 360.69922 403.58008 L 360.69922 403.59961 C 344.31653 411.10244 344.40625 411.10742 344.40625 411.10742 L 360.69922 418.61523 L 360.69922 418.63477 L 360.74023 418.63477 L 422.15625 418.63477 L 422.15625 403.58008 L 360.74023 403.58008 L 360.69922 403.58008 z "
       inkscape:label="pen" />
  </g>
</svg>
