<?xml version="1.0" encoding="UTF-8" standalone="no"?>
<!-- Created with Inkscape (http://www.inkscape.org/) -->

<svg
   width="522.71503"
   height="530.10199"
   viewBox="0 0 522.71502 530.10199"
   version="1.1"
   id="svg5"
   inkscape:version="1.3.1 (91b66b0783, 2023-11-16, custom)"
   sodipodi:docname="gen_V02.svg"
   xmlns:inkscape="http://www.inkscape.org/namespaces/inkscape"
   xmlns:sodipodi="http://sodipodi.sourceforge.net/DTD/sodipodi-0.dtd"
   xmlns="http://www.w3.org/2000/svg"
   xmlns:svg="http://www.w3.org/2000/svg">
  <sodipodi:namedview
     id="namedview7"
     pagecolor="#505050"
     bordercolor="#eeeeee"
     borderopacity="1"
     inkscape:showpageshadow="0"
     inkscape:pageopacity="0"
     inkscape:pagecheckerboard="0"
     inkscape:deskcolor="#505050"
     inkscape:document-units="px"
     showgrid="false"
     showguides="true"
     inkscape:zoom="2.0000001"
     inkscape:cx="225.24999"
     inkscape:cy="250.99999"
     inkscape:window-width="2524"
     inkscape:window-height="1367"
     inkscape:window-x="15"
     inkscape:window-y="52"
     inkscape:window-maximized="0"
     inkscape:current-layer="layer2">
    <sodipodi:guide
       position="236.35785,261.41639"
       orientation="1,0"
       id="guide2880"
       inkscape:locked="false" />
    <sodipodi:guide
       position="702.9298,373.96959"
       orientation="0,-1"
       id="guide2882"
       inkscape:locked="false" />
    <sodipodi:guide
       position="80.13234,25.003422"
       orientation="0,-1"
       id="guide2906"
       inkscape:locked="false" />
    <sodipodi:guide
       position="27.89684,144.11819"
       orientation="0,-1"
       id="guide2908"
       inkscape:locked="false" />
    <sodipodi:guide
       position="44.42674,274.09499"
       orientation="0,-1"
       id="guide2910"
       inkscape:locked="false" />
    <sodipodi:guide
       position="307.91835,454.97769"
       orientation="0,-1"
       id="guide2912"
       inkscape:locked="false" />
    <sodipodi:guide
       position="25.000004,266.35116"
       orientation="1,0"
       id="guide4"
       inkscape:locked="false" />
    <sodipodi:guide
       position="262.33661,504.97769"
       orientation="0,-1"
       id="guide5"
       inkscape:locked="false" />
    <sodipodi:guide
       position="497.71529,267.05827"
       orientation="1,0"
       id="guide6"
       inkscape:locked="false" />
    <sodipodi:guide
       position="262.33661,25.000013"
       orientation="0,-1"
       id="guide7"
       inkscape:locked="false" />
  </sodipodi:namedview>
  <defs
     id="defs2">
    <inkscape:path-effect
       effect="fillet_chamfer"
       id="path-effect5"
       is_visible="true"
       lpeversion="1"
       nodesatellites_param="F,0,0,1,0,2,0,1 @ F,0,0,1,0,2,0,1 @ F,0,0,1,0,2,0,1 @ F,0,0,1,0,2,0,1 | F,0,0,1,0,2,0,1 @ F,0,0,1,0,2,0,1 @ F,0,0,1,0,2,0,1 @ F,0,0,1,0,2,0,1"
       radius="0"
       unit="px"
       method="auto"
       mode="F"
       chamfer_steps="1"
       flexible="false"
       use_knot_distance="true"
       apply_no_radius="true"
       apply_with_radius="true"
       only_selected="false"
       hide_knots="false" />
    <inkscape:path-effect
       effect="fillet_chamfer"
       id="path-effect4"
       is_visible="true"
       lpeversion="1"
       nodesatellites_param="F,0,0,1,0,0,0,1 @ F,0,0,1,0,0,0,1 @ F,0,0,1,0,0,0,1 @ F,0,0,1,0,0,0,1 @ F,0,0,1,0,0,0,1 @ F,0,0,1,0,0,0,1 @ F,0,0,1,0,0,0,1 @ F,0,0,1,0,0,0,1 @ F,0,0,1,0,0,0,1 @ F,0,0,1,0,10,0,1 @ F,0,0,1,0,0,0,1 @ F,0,0,1,0,0,0,1 @ F,0,0,1,0,0,0,1 @ F,0,0,1,0,0,0,1 @ F,0,0,1,0,0,0,1 @ F,0,0,1,0,0,0,1 @ F,0,0,1,0,0,0,1 @ F,0,0,1,0,10,0,1 @ F,0,0,1,0,0,0,1 @ F,0,0,1,0,0,0,1 @ F,0,0,1,0,0,0,1 @ F,0,0,1,0,0,0,1 @ F,0,0,1,0,0,0,1 @ F,0,0,1,0,0,0,1 @ F,0,0,1,0,0,0,1 @ F,0,0,1,0,0,0,1 @ F,0,0,1,0,0,0,1 @ F,0,0,1,0,0,0,1 @ F,0,0,1,0,0,0,1 @ F,0,0,1,0,10,0,1 @ F,0,0,1,0,0,0,1 @ F,0,0,1,0,0,0,1 @ F,0,0,1,0,0,0,1 @ F,0,0,1,0,0,0,1 @ F,0,0,1,0,0,0,1 @ F,0,0,1,0,0,0,1 @ F,0,0,1,0,0,0,1 @ F,0,0,1,0,10,0,1 @ F,0,0,1,0,0,0,1 @ F,0,0,1,0,0,0,1 @ F,0,0,1,0,0,0,1 @ F,0,0,1,0,0,0,1 @ F,0,0,1,0,0,0,1 @ F,0,0,1,0,0,0,1 @ F,0,0,1,0,0,0,1 @ F,0,0,1,0,10,0,1 @ F,0,0,1,0,0,0,1 @ F,0,0,1,0,0,0,1 @ F,0,0,1,0,0,0,1 @ F,0,0,1,0,0,0,1 @ F,0,0,1,0,0,0,1 @ F,0,0,1,0,0,0,1 @ F,0,0,1,0,0,0,1 @ F,0,0,1,0,10,0,1 @ F,0,0,1,0,0,0,1 @ F,0,0,1,0,0,0,1 @ F,0,0,1,0,0,0,1 @ F,0,0,1,0,0,0,1 @ F,0,0,1,0,0,0,1 @ F,0,0,1,0,0,0,1 @ F,0,0,1,0,0,0,1 @ F,0,0,1,0,0,0,1 @ F,0,0,1,0,10,0,1 @ F,0,0,1,0,0,0,1 @ F,0,0,1,0,10,0,1 @ F,0,0,1,0,0,0,1 @ F,0,0,1,0,0,0,1 @ F,0,0,1,0,0,0,1 @ F,0,0,1,0,0,0,1 @ F,0,0,1,0,0,0,1 @ F,0,0,1,0,10,0,1 @ F,0,0,1,0,0,0,1 @ F,0,0,1,0,0,0,1 @ F,0,0,1,0,0,0,1 @ F,0,0,1,0,0,0,1 @ F,0,0,1,0,0,0,1 @ F,0,0,1,0,0,0,1 @ F,0,0,1,0,10,0,1 @ F,0,0,1,0,0,0,1 @ F,0,0,1,0,0,0,1 | F,0,0,1,0,0,0,1 @ F,0,0,1,0,0,0,1 @ F,0,0,1,0,0,0,1 @ F,0,0,1,0,0,0,1 | F,0,0,1,0,0,0,1 @ F,0,0,1,0,0,0,1 @ F,0,0,1,0,0,0,1 @ F,0,0,1,0,0,0,1 | F,0,0,1,0,0,0,1 @ F,0,0,1,0,0,0,1"
       radius="0"
       unit="px"
       method="auto"
       mode="F"
       chamfer_steps="1"
       flexible="false"
       use_knot_distance="true"
       apply_no_radius="true"
       apply_with_radius="true"
       only_selected="false"
       hide_knots="false" />
    <inkscape:path-effect
       effect="mirror_symmetry"
       start_point="1227.9639,166.32106"
       end_point="1227.9639,1036.3211"
       center_point="1227.9639,601.32108"
       id="path-effect3"
       is_visible="true"
       lpeversion="1.2"
       lpesatellites=""
       mode="free"
       discard_orig_path="false"
       fuse_paths="false"
       oposite_fuse="false"
       split_items="false"
       split_open="false"
       link_styles="false" />
    <inkscape:path-effect
       effect="mirror_symmetry"
       start_point="1224.9637,539.32105"
       end_point="1224.9637,834.69591"
       center_point="1224.9637,687.00848"
       id="path-effect2"
       is_visible="true"
       lpeversion="1.2"
       lpesatellites=""
       mode="free"
       discard_orig_path="false"
       fuse_paths="false"
       oposite_fuse="false"
       split_items="false"
       split_open="false"
       link_styles="false" />
    <inkscape:path-effect
       effect="fillet_chamfer"
       id="path-effect1"
       is_visible="true"
       lpeversion="1"
       nodesatellites_param="F,0,0,1,0,0,0,1 @ F,0,0,1,0,0,0,1 @ F,0,0,1,0,0,0,1 @ F,0,0,1,0,0,0,1 @ F,0,0,1,0,0,0,1 @ F,0,0,1,0,0,0,1 @ F,0,0,1,0,0,0,1 @ F,0,0,1,0,0,0,1 @ F,0,0,1,0,0,0,1 @ F,0,0,1,0,0,0,1 @ F,0,0,1,0,2,0,1 @ F,0,0,1,0,0,0,1 @ F,0,0,1,0,0,0,1 @ F,0,0,1,0,0,0,1 @ F,0,0,1,0,0,0,1 @ F,0,0,1,0,0,0,1 @ F,0,0,1,0,2,0,1 @ F,0,0,1,0,2,0,1 @ F,0,0,1,0,0,0,1 @ F,0,0,1,0,0,0,1 @ F,0,0,1,0,0,0,1 @ F,0,0,1,0,0,0,1 @ F,0,0,1,0,0,0,1 @ F,0,0,1,0,2,0,1 @ F,0,0,1,0,2,0,1 @ F,0,0,1,0,0,0,1 @ F,0,0,1,0,0,0,1 @ F,0,0,1,0,0,0,1 @ F,0,0,1,0,0,0,1 @ F,0,0,1,0,0,0,1 @ F,0,0,1,0,0,0,1 @ F,0,0,1,0,2,0,1 @ F,0,0,1,0,2,0,1 @ F,0,0,1,0,0,0,1 @ F,0,0,1,0,0,0,1 @ F,0,0,1,0,0,0,1 @ F,0,0,1,0,0,0,1"
       radius="0"
       unit="px"
       method="auto"
       mode="F"
       chamfer_steps="1"
       flexible="false"
       use_knot_distance="true"
       apply_no_radius="true"
       apply_with_radius="true"
       only_selected="false"
       hide_knots="false" />
    <inkscape:path-effect
       effect="fillet_chamfer"
       id="path-effect23"
       is_visible="true"
       lpeversion="1"
       nodesatellites_param="F,0,0,1,0,0,0,1 @ F,0,0,1,0,0,0,1 @ F,0,0,1,0,0,0,1 @ F,0,0,1,0,0,0,1 @ F,0,0,1,0,0,0,1 @ F,0,0,1,0,0,0,1 @ F,0,0,1,0,0,0,1 @ F,0,0,1,0,0,0,1 @ F,0,0,1,0,0,0,1 @ F,0,0,1,0,0,0,1 @ F,0,0,1,0,0,0,1 @ F,0,0,1,0,0,0,1 @ F,0,0,1,0,0,0,1 @ F,0,0,1,0,0,0,1 @ F,0,0,1,0,0,0,1 @ F,0,0,1,0,0,0,1 @ F,0,0,1,0,0,0,1 @ F,0,0,1,0,0,0,1 @ F,0,0,1,0,0,0,1 @ F,0,0,1,0,0,0,1 @ F,0,0,1,0,0,0,1 @ F,0,0,1,0,0,0,1 @ F,0,0,1,0,0,0,1 @ F,0,0,1,0,0,0,1 @ F,0,0,1,0,0,0,1 @ F,0,0,1,0,0,0,1 @ F,0,0,1,0,0,0,1 @ F,0,0,1,0,0,0,1 @ F,0,0,1,0,0,0,1"
       radius="0"
       unit="px"
       method="auto"
       mode="F"
       chamfer_steps="1"
       flexible="false"
       use_knot_distance="true"
       apply_no_radius="true"
       apply_with_radius="true"
       only_selected="false"
       hide_knots="false" />
    <clipPath
       clipPathUnits="userSpaceOnUse"
       id="clipPath15">
      <rect
         style="fill:#000000"
         id="rect15"
         width="405"
         height="870"
         x="1224.9639"
         y="230.32106"
         ry="0.078125"
         rx="0" />
    </clipPath>
    <clipPath
       clipPathUnits="userSpaceOnUse"
       id="clipPath16">
      <rect
         style="fill:#000000"
         id="rect16"
         width="405"
         height="870"
         x="1224.9639"
         y="230.32106"
         ry="0.078125"
         rx="0" />
    </clipPath>
    <clipPath
       clipPathUnits="userSpaceOnUse"
       id="clipPath17">
      <rect
         style="fill:#000000"
         id="rect17"
         width="405"
         height="870"
         x="1224.9639"
         y="230.32106"
         ry="0.078125"
         rx="0" />
    </clipPath>
    <clipPath
       clipPathUnits="userSpaceOnUse"
       id="clipPath18">
      <rect
         style="fill:#000000"
         id="rect18"
         width="405"
         height="870"
         x="1224.9639"
         y="230.32106"
         ry="0.078125"
         rx="0" />
    </clipPath>
    <clipPath
       clipPathUnits="userSpaceOnUse"
       id="clipPath19">
      <rect
         style="fill:#000000"
         id="rect19"
         width="405"
         height="870"
         x="1224.9639"
         y="230.32106"
         ry="0.078125"
         rx="0" />
    </clipPath>
    <clipPath
       clipPathUnits="userSpaceOnUse"
       id="clipPath20">
      <rect
         style="fill:#000000"
         id="rect20"
         width="405"
         height="870"
         x="1224.9639"
         y="230.32106"
         ry="0.078125"
         rx="0" />
    </clipPath>
    <clipPath
       clipPathUnits="userSpaceOnUse"
       id="clipPath21">
      <rect
         style="fill:#000000"
         id="rect21"
         width="405"
         height="870"
         x="1224.9639"
         y="230.32106"
         ry="0.078125"
         rx="0" />
    </clipPath>
    <clipPath
       clipPathUnits="userSpaceOnUse"
       id="clipPath22">
      <rect
         style="fill:#000000"
         id="rect22"
         width="405"
         height="870"
         x="1224.9639"
         y="230.32106"
         ry="0.078125"
         rx="0" />
    </clipPath>
    <clipPath
       clipPathUnits="userSpaceOnUse"
       id="clipPath23">
      <path
         id="rect23"
         d="m 1225.042,230.32106 h 404.8437 c 0.043,0 0.078,0.0348 0.078,0.0781 v 869.84374 c 0,0.043 -0.035,0.078 -0.078,0.078 H 1225.042 c -0.043,0 -0.078,-0.035 -0.078,-0.078 V 230.39919 c 0,-0.0433 0.035,-0.0781 0.078,-0.0781 z m -0.1566,0 -404.8437,0 c -0.043,0 -0.078,0.0348 -0.078,0.0781 l 0,869.84374 c 0,0.043 0.035,0.078 0.078,0.078 l 404.8437,0 c 0.043,0 0.078,-0.035 0.078,-0.078 l 0,-869.84371 c 0,-0.0433 -0.035,-0.0781 -0.078,-0.0781 z"
         style="fill:#000000" />
    </clipPath>
    <clipPath
       clipPathUnits="userSpaceOnUse"
       id="clipPath22-9">
      <path
         id="rect22-0"
         d="m 1225.042,230.32106 h 404.8437 c 0.043,0 0.078,0.0348 0.078,0.0781 v 869.84374 c 0,0.043 -0.035,0.078 -0.078,0.078 H 1225.042 c -0.043,0 -0.078,-0.035 -0.078,-0.078 V 230.39919 c 0,-0.0433 0.035,-0.0781 0.078,-0.0781 z"
         style="fill:#000000" />
    </clipPath>
    <inkscape:path-effect
       effect="mirror_symmetry"
       start_point="1227.9639,166.32106"
       end_point="1227.9639,1036.3211"
       center_point="1227.9639,601.32108"
       id="path-effect3-5"
       is_visible="true"
       lpeversion="1.2"
       lpesatellites=""
       mode="free"
       discard_orig_path="false"
       fuse_paths="false"
       oposite_fuse="false"
       split_items="false"
       split_open="false"
       link_styles="false" />
    <clipPath
       clipPathUnits="userSpaceOnUse"
       id="clipPath21-7">
      <rect
         style="fill:#000000"
         id="rect21-3"
         width="405"
         height="870"
         x="1224.9639"
         y="230.32106"
         ry="0.078125"
         rx="0" />
    </clipPath>
  </defs>
  <g
     inkscape:groupmode="layer"
     id="layer2"
     inkscape:label="gen">
    <path
       style="color:#000000;fill:#000000;-inkscape-stroke:none"
       d="M 130.85156,25 C 72.687905,25 25,72.687907 25,130.85156 c 0,58.16366 47.687905,105.84961 105.85156,105.84961 58.16366,0 105.84961,-47.68595 105.84961,-105.84961 C 236.70117,72.687907 189.01522,25 130.85156,25 Z m 0,50 c 31.14168,0 55.84961,24.709888 55.84961,55.85156 0,31.14168 -24.70793,55.84961 -55.84961,55.84961 C 99.709881,186.70117 75,161.99324 75,130.85156 75,99.709888 99.709881,75 130.85156,75 Z"
       id="path1"
       inkscape:label="circle" />
    <path
       style="color:#000000;fill:#000000;-inkscape-stroke:none"
       d="m 291.79883,301.18555 v 201.91601 a 2,2 45 0 0 2,2 h 201.91601 a 2,2 135 0 0 2,-2 V 301.18555 a 2,2 45 0 0 -2,-2 H 293.79883 a 2,2 135 0 0 -2,2 z m 52,48 h 101.91601 a 2,2 45 0 1 2,2 v 101.91601 a 2,2 135 0 1 -2,2 H 343.79883 a 2,2 45 0 1 -2,-2 V 351.18555 a 2,2 135 0 1 2,-2 z"
       id="rect1"
       inkscape:label="square"
       inkscape:original-d="M 291.79883,299.18555 V 505.10156 H 497.71484 V 299.18555 Z m 50,50 H 447.71484 V 455.10156 H 341.79883 Z"
       inkscape:path-effect="#path-effect5" />
    <path
       style="color:#000000;fill:#000000;stroke-linecap:round;-inkscape-stroke:none"
       d="m 474.88281,25.580078 c -13.74885,-1.266319 -23.69245,9.755339 -27.1875,22.601563 -1.66967,6.136975 -8.19297,21.590317 -15.10937,24.917968 -3.4582,1.663826 -6.98047,2.66671 -15.38867,-0.101562 -8.40821,-2.768273 -21.38283,-10.366213 -37.69141,-26.75586 -3.54816,-3.5658 -11.39113,-11.438904 -24.28711,-10.396484 -7.21416,0.583142 -16.19026,6.302429 -19.76563,11.929688 -7.15072,11.254516 -4.36151,15.782758 -3.91601,19.326171 1.29038,10.263404 7.5267,26.110283 18.58398,51.189458 0.52205,1.18407 1.0933,2.43994 1.68806,3.73054 2.31137,5.01555 1.14829,5.79706 -2.59826,1.73932 -19.12899,-20.71783 -36.59949,-40.162546 -46.56441,-51.407364 -2.12544,-2.398435 -4.02167,-5.382625 -11.46484,-8.46875 -3.72158,-1.543063 -9.80105,-2.964888 -16.59375,-1.226563 -6.7927,1.738325 -12.39672,6.670476 -15.08789,10.634766 -5.38234,7.92858 -4.6946,12.010013 -4.86328,15.246093 -0.16869,3.236081 0.0226,5.737504 0.28711,8.330079 1.05796,10.370299 3.86217,22.431579 7.7207,38.037109 4.80538,19.43499 11.34769,43.65584 18.19768,68.9764 1.44216,5.33088 -1.54095,7.97613 -6.69822,6.00026 -0.74565,-0.28568 -1.47583,-0.56269 -2.18501,-0.82822 -3.634,-1.36062 -6.73963,-2.52876 -10.86328,-3.52735 -2.06182,-0.49929 -4.05331,-1.21935 -9.16797,-1.01953 -2.55732,0.0999 -6.25793,0.20074 -11.76171,3.24414 -5.50379,3.0434 -11.93058,11.49274 -12.9375,18.86524 -2.48057,18.16223 -6.50516,22.38651 -8.87891,23.80468 -2.37376,1.41818 -11.30044,3.24538 -30.2207,-1.23046 -6.27857,-1.48528 -18.01174,0.0674 -24.85743,6.44921 -6.84568,6.38182 -8.05415,12.80916 -8.66601,16.97852 -1.22373,8.33873 0.0196,12.87502 1.16406,18.32813 2.28891,10.90622 6.45246,23.14332 11.66016,36.75781 0.16494,0.43121 0.33313,0.86475 0.50397,1.3002 2.01697,5.14111 0.50709,6.19176 -3.49361,2.38437 -21.161,-20.13853 -41.17305,-39.83542 -52.70372,-51.18653 -13.340621,-13.13286 -22.045743,-21.19781 -33.58008,-26.83398 -5.767168,-2.81808 -14.57317,-7.13151 -27.328125,-1.52148 -6.377477,2.80501 -11.631543,8.63306 -14.042969,13.65429 -2.411425,5.02123 -2.898617,9.15638 -3.054687,12.56446 -0.62428,13.6323 3.132485,21.44394 7.390625,32.53906 4.258139,11.09512 9.980338,23.61646 16.582031,37.05859 6.856319,13.96059 14.583684,28.60193 22.50094,43.17851 2.635892,4.85298 1.254136,6.03275 -3.129571,2.67344 -2.300762,-1.76311 -4.314902,-3.28897 -5.566682,-4.18984 -4.133818,-2.97498 -13.4535,-7.53405 -24.183593,-4.22461 -10.730094,3.30945 -15.205767,11.26719 -17.132813,15.63281 -3.854091,8.73125 -3.505859,13.25303 -3.966797,19.84766 -0.921874,13.18927 -0.85422,31.59545 -1.103515,58.73828 -0.12679,13.8066 10.962932,25.10182 24.769531,25.22852 13.806596,0.12679 25.101813,-10.96293 25.228516,-24.76953 0.05126,-5.58113 0.09701,-10.3899 0.141703,-14.89701 0.05476,-5.52258 3.679496,-7.30698 8.096056,-3.99098 5.941433,4.46088 11.946122,8.93383 18.24271,13.429 13.50081,9.6383 25.68691,18.06855 36.37305,23.60156 2.67153,1.38326 5.2246,2.62912 8.73046,3.77344 3.50587,1.14433 9.95135,3.847 19.72071,-0.11133 5.95283,-2.41196 13.09924,-9.32453 15.34179,-16.07031 2.24256,-6.74578 1.50504,-11.58311 0.60352,-14.76953 -1.82498,-6.45037 -3.44847,-9.03329 -5.38086,-12.06836 -6.26608,-9.8417 -30.81982,-51.20128 -53.26035,-92.65883 -2.62888,-4.8567 -1.51188,-5.69921 2.47788,-1.88037 16.96005,16.23349 34.96872,33.03618 51.21997,47.09584 8.8519,7.65816 17.06607,14.41477 24.52344,19.88281 7.45736,5.46805 12.37308,9.85227 23.4043,12.89063 2.7578,0.75959 6.16129,1.522 11.1289,1.06641 4.96762,-0.4556 12.11319,-2.92386 17.17774,-8.17969 10.12908,-10.51166 8.06812,-21.11493 6.92773,-26.63086 -2.28078,-11.03186 -6.61543,-18.09957 -13.4668,-29.65039 -9.23168,-15.56383 -23.59367,-46.19899 -32.99218,-70.76953 -1.58661,-4.14786 1.82346,-7.6079 7.27723,-8.45421 7.84001,-1.2166 15.39071,-3.74311 22.58605,-8.04189 9.24665,-5.5243 16.15016,-13.30799 21.26682,-22.54143 2.67524,-4.8277 8.03068,-7.5066 12.70388,-5.74763 8.97031,3.37639 17.56219,6.65261 27.70117,8.15625 5.06949,0.75182 12.85286,1.62691 21.36328,-2.58789 5.27893,-2.6144 11.60177,-8.6992 14.07813,-15.73242 2.17425,-6.17519 1.67791,-13.12963 0.55664,-17.39844 -5.22775,-19.90273 -10.55356,-39.58707 -15.61463,-58.32417 -1.44015,-5.33172 0.44739,-6.38 4.22865,-2.35459 9.97313,10.6171 19.97141,21.09358 29.5227,30.71392 17.26332,17.3881 31.56811,30.02606 44.6289,39.95312 7.7797,5.91308 14.42012,8.08733 26.41407,6.44141 6.3802,-0.87555 14.03276,-6.87789 17.4414,-12.93946 6.81728,-12.12313 3.50513,-18.41749 2.26758,-23.15039 -1.23755,-4.73289 -2.90247,-8.67672 -5.04492,-13.24023 -9.91393,-21.11707 -22.6314,-47.92383 -34.48712,-73.55179 -2.31874,-5.01232 0.15641,-7.90533 5.63489,-7.23693 13.62138,1.66186 26.76901,-0.43484 37.61004,-5.65073 29.63706,-14.25912 41.0872,-42.224421 43.2207,-65.386722 1.26632,-13.748853 -8.85272,-25.921078 -22.60156,-27.1875 z M 312.20898,223.36523 c 1.12296,-0.004 1.1859,0.44753 0.78907,0.38868 -0.14683,-0.0218 -0.92339,-0.26261 -1.17383,-0.31836 0.0968,-0.006 0.30021,-0.07 0.38476,-0.0703 z m -151.3125,230.11524 c 0.6399,0.30811 1.08712,0.60684 1.32227,0.68359 0.81495,0.266 -3.7e-4,0.007 -1.25586,-0.64258 -0.0136,-0.007 -0.0526,-0.0339 -0.0664,-0.041 z m -26.23632,31.79883 c 0.0324,0.051 0.12041,0.19985 0.15234,0.25 0.26074,0.40952 0.1401,0.39081 -0.15234,-0.25 z"
       id="path2"
       sodipodi:nodetypes="csssssssscssssscscssssssssssscssssssscssssssscssssssscsssssssscscssssscsssssscsscsscssssssscsc"
       inkscape:label="wiggle_line"
       inkscape:original-d="m 474.88281,25.580078 c -13.74885,-1.266319 -23.69245,9.755339 -27.1875,22.601563 -1.66967,6.136975 -8.19297,21.590317 -15.10937,24.917968 -3.4582,1.663826 -6.98047,2.66671 -15.38867,-0.101562 -8.40821,-2.768273 -21.38283,-10.366213 -37.69141,-26.75586 -3.54816,-3.5658 -11.39113,-11.438904 -24.28711,-10.396484 -7.21416,0.583142 -16.19026,6.302429 -19.76563,11.929688 -7.15072,11.254516 -4.36151,15.782758 -3.91601,19.326171 1.29038,10.263404 7.5267,26.110283 18.58398,51.189458 1.73266,3.92985 4.00719,8.65065 5.88477,12.80664 -21.71931,-23.37694 -42.22481,-46.179449 -53.35938,-58.744144 -2.12544,-2.398435 -4.02167,-5.382625 -11.46484,-8.46875 -3.72158,-1.543063 -9.80105,-2.964888 -16.59375,-1.226563 -6.7927,1.738325 -12.39672,6.670476 -15.08789,10.634766 -5.38234,7.92858 -4.6946,12.010013 -4.86328,15.246093 -0.16869,3.236081 0.0226,5.737504 0.28711,8.330079 1.05796,10.370299 3.86217,22.431579 7.7207,38.037109 5.41314,21.89302 13.03034,49.85902 20.80859,78.62891 -3.89745,-1.546 -7.95695,-3.1561 -11.49414,-4.48047 -3.634,-1.36062 -6.73963,-2.52876 -10.86328,-3.52735 -2.06182,-0.49929 -4.05331,-1.21935 -9.16797,-1.01953 -2.55732,0.0999 -6.25793,0.20074 -11.76171,3.24414 -5.50379,3.0434 -11.93058,11.49274 -12.9375,18.86524 -2.48057,18.16223 -6.50516,22.38651 -8.87891,23.80468 -2.37376,1.41818 -11.30044,3.24538 -30.2207,-1.23046 -6.27857,-1.48528 -18.01174,0.0674 -24.85743,6.44921 -6.84568,6.38182 -8.05415,12.80916 -8.66601,16.97852 -1.22373,8.33873 0.0196,12.87502 1.16406,18.32813 2.28891,10.90622 6.45246,23.14332 11.66016,36.75781 1.3167,3.44225 2.84019,7.03261 4.26758,10.56445 -23.75429,-22.42795 -47.11826,-45.42372 -59.96094,-58.06641 -13.340621,-13.13286 -22.045743,-21.19781 -33.58008,-26.83398 -5.767168,-2.81808 -14.57317,-7.13151 -27.328125,-1.52148 -6.377477,2.80501 -11.631543,8.63306 -14.042969,13.65429 -2.411425,5.02123 -2.898617,9.15638 -3.054687,12.56446 -0.62428,13.6323 3.132485,21.44394 7.390625,32.53906 4.258139,11.09512 9.980338,23.61646 16.582031,37.05859 8.234565,16.76693 17.725567,34.5158 27.292969,51.95508 -4.931731,-3.80191 -10.873371,-8.4111 -13.488282,-10.29297 -4.133818,-2.97498 -13.4535,-7.53405 -24.183593,-4.22461 -10.730094,3.30945 -15.205767,11.26719 -17.132813,15.63281 -3.854091,8.73125 -3.505859,13.25303 -3.966797,19.84766 -0.921874,13.18927 -0.85422,31.59545 -1.103515,58.73828 -0.12679,13.8066 10.962932,25.10182 24.769531,25.22852 13.806596,0.12679 25.101813,-10.96293 25.228516,-24.76953 0.09037,-9.83973 0.163623,-17.27875 0.24414,-24.89649 8.596361,6.45311 17.109717,12.92196 26.236329,19.4375 13.50081,9.6383 25.68691,18.06855 36.37305,23.60156 2.67153,1.38326 5.2246,2.62912 8.73046,3.77344 3.50587,1.14433 9.95135,3.847 19.72071,-0.11133 5.95283,-2.41196 13.09924,-9.32453 15.34179,-16.07031 2.24256,-6.74578 1.50504,-11.58311 0.60352,-14.76953 -1.82498,-6.45037 -3.44847,-9.03329 -5.38086,-12.06836 -6.71033,-10.53945 -34.39333,-57.22427 -57.99414,-101.4668 18.97919,18.29367 39.85374,37.95089 58.43164,54.02344 8.8519,7.65816 17.06607,14.41477 24.52344,19.88281 7.45736,5.46805 12.37308,9.85227 23.4043,12.89063 2.7578,0.75959 6.16129,1.522 11.1289,1.06641 4.96762,-0.4556 12.11319,-2.92386 17.17774,-8.17969 10.12908,-10.51166 8.06812,-21.11493 6.92773,-26.63086 -2.28078,-11.03186 -6.61543,-18.09957 -13.4668,-29.65039 -9.23168,-15.56383 -23.59367,-46.19899 -32.99218,-70.76953 -1.04383,-2.72887 -1.76139,-5.00766 -2.67774,-7.58203 11.4353,-0.2897 22.34494,-2.82253 32.54102,-8.91407 12.1284,-7.24597 20.22558,-18.37907 25.54687,-31.57226 3.03003,1.19419 5.21349,2.07484 8.42383,3.2832 8.97031,3.37639 17.56219,6.65261 27.70117,8.15625 5.06949,0.75182 12.85286,1.62691 21.36328,-2.58789 5.27893,-2.6144 11.60177,-8.6992 14.07813,-15.73242 2.17425,-6.17519 1.67791,-13.12963 0.55664,-17.39844 -6.13392,-23.35262 -12.40283,-46.40458 -18.2207,-67.97852 12.21008,13.07888 24.62119,26.19261 36.35742,38.01368 17.26332,17.3881 31.56811,30.02606 44.6289,39.95312 7.7797,5.91308 14.42012,8.08733 26.41407,6.44141 6.3802,-0.87555 14.03276,-6.87789 17.4414,-12.93946 6.81728,-12.12313 3.50513,-18.41749 2.26758,-23.15039 -1.23755,-4.73289 -2.90247,-8.67672 -5.04492,-13.24023 -11.09283,-23.62819 -25.69562,-54.37969 -38.67383,-82.63281 17.02738,4.32993 33.99989,2.65571 47.43164,-3.80664 29.63706,-14.25912 41.0872,-42.224421 43.2207,-65.386722 1.26632,-13.748853 -8.85272,-25.921078 -22.60156,-27.1875 z M 312.20898,223.36523 c 1.12296,-0.004 1.1859,0.44753 0.78907,0.38868 -0.14683,-0.0218 -0.92339,-0.26261 -1.17383,-0.31836 0.0968,-0.006 0.30021,-0.07 0.38476,-0.0703 z m -151.3125,230.11524 c 0.6399,0.30811 1.08712,0.60684 1.32227,0.68359 0.81495,0.266 -3.7e-4,0.007 -1.25586,-0.64258 -0.0136,-0.007 -0.0526,-0.0339 -0.0664,-0.041 z m -26.23632,31.79883 c 0.0324,0.051 0.12041,0.19985 0.15234,0.25 0.26074,0.40952 0.1401,0.39081 -0.15234,-0.25 z"
       inkscape:path-effect="#path-effect4" />
  </g>
</svg>
