<?xml version="1.0" encoding="UTF-8" standalone="no"?>
<!-- Created with Inkscape (http://www.inkscape.org/) -->

<svg
   width="522.71503"
   height="530.10199"
   viewBox="0 0 522.71502 530.10199"
   version="1.1"
   id="svg5"
   inkscape:version="1.3.1 (91b66b0, 2023-11-16)"
   sodipodi:docname="question_V03.svg"
   xmlns:inkscape="http://www.inkscape.org/namespaces/inkscape"
   xmlns:sodipodi="http://sodipodi.sourceforge.net/DTD/sodipodi-0.dtd"
   xmlns="http://www.w3.org/2000/svg"
   xmlns:svg="http://www.w3.org/2000/svg">
  <sodipodi:namedview
     id="namedview7"
     pagecolor="#505050"
     bordercolor="#eeeeee"
     borderopacity="1"
     inkscape:showpageshadow="0"
     inkscape:pageopacity="0"
     inkscape:pagecheckerboard="0"
     inkscape:deskcolor="#505050"
     inkscape:document-units="px"
     showgrid="false"
     showguides="true"
     inkscape:zoom="1.4142136"
     inkscape:cx="219.55665"
     inkscape:cy="167.58431"
     inkscape:window-width="2560"
     inkscape:window-height="1387"
     inkscape:window-x="1440"
     inkscape:window-y="25"
     inkscape:window-maximized="0"
     inkscape:current-layer="layer1">
    <sodipodi:guide
       position="236.35785,261.41639"
       orientation="1,0"
       id="guide2880"
       inkscape:locked="false" />
    <sodipodi:guide
       position="702.9298,373.96959"
       orientation="0,-1"
       id="guide2882"
       inkscape:locked="false" />
    <sodipodi:guide
       position="80.13234,25.003422"
       orientation="0,-1"
       id="guide2906"
       inkscape:locked="false" />
    <sodipodi:guide
       position="27.89684,144.11819"
       orientation="0,-1"
       id="guide2908"
       inkscape:locked="false" />
    <sodipodi:guide
       position="44.42674,274.09499"
       orientation="0,-1"
       id="guide2910"
       inkscape:locked="false" />
    <sodipodi:guide
       position="307.91835,454.97769"
       orientation="0,-1"
       id="guide2912"
       inkscape:locked="false" />
    <sodipodi:guide
       position="25.000004,266.35116"
       orientation="1,0"
       id="guide4"
       inkscape:locked="false" />
    <sodipodi:guide
       position="262.33661,504.97769"
       orientation="0,-1"
       id="guide5"
       inkscape:locked="false" />
    <sodipodi:guide
       position="497.71529,267.05827"
       orientation="1,0"
       id="guide6"
       inkscape:locked="false" />
    <sodipodi:guide
       position="262.33661,25.000013"
       orientation="0,-1"
       id="guide7"
       inkscape:locked="false" />
  </sodipodi:namedview>
  <defs
     id="defs2">
    <inkscape:path-effect
       effect="fillet_chamfer"
       id="path-effect6"
       is_visible="true"
       lpeversion="1"
       nodesatellites_param="F,0,0,1,0,2,0,1 @ F,0,0,1,0,2,0,1 @ F,0,0,1,0,2,0,1 @ F,0,0,1,0,2,0,1 @ F,0,0,1,0,2,0,1 @ F,0,0,1,0,2,0,1 @ F,0,0,1,0,2,0,1 @ F,0,0,1,0,2,0,1 | F,0,0,1,0,2,0,1 @ F,0,0,1,0,2,0,1 @ F,0,0,1,0,0,0,1 @ F,0,0,1,0,0,0,1 @ F,0,0,1,0,0,0,1 @ F,0,0,1,0,0,0,1 @ F,0,0,1,0,0,0,1 @ F,0,0,1,0,0,0,1 @ F,0,0,1,0,0,0,1 @ F,0,0,1,0,0,0,1 @ F,0,0,1,0,0,0,1 @ F,0,0,1,0,0,0,1 @ F,0,0,1,0,0,0,1 @ F,0,0,1,0,2,0,1 @ F,0,0,1,0,2,0,1 @ F,0,0,1,0,0,0,1 @ F,0,0,1,0,0,0,1 @ F,0,0,1,0,0,0,1 @ F,0,0,1,0,0,0,1 @ F,0,0,1,0,0,0,1 @ F,0,0,1,0,0,0,1 @ F,0,0,1,0,0,0,1 @ F,0,0,1,0,0,0,1 @ F,0,0,1,0,0,0,1 @ F,0,0,1,0,0,0,1 @ F,0,0,1,0,0,0,1 @ F,0,0,1,0,0,0,1 | F,0,0,1,0,0,0,1 @ F,0,0,1,0,0,0,1 @ F,0,0,1,0,0,0,1 @ F,0,0,1,0,0,0,1 @ F,0,0,1,0,0,0,1 @ F,0,0,1,0,0,0,1 @ F,0,0,1,0,0,0,1 @ F,0,0,1,0,0,0,1 | F,0,0,1,0,2,0,1 @ F,0,0,1,0,2,0,1 @ F,0,0,1,0,2,0,1 @ F,0,0,1,0,2,0,1 | F,0,0,1,0,0,0,1 @ F,0,0,1,0,0,0,1 @ F,0,0,1,0,0,0,1 @ F,0,0,1,0,0,0,1 @ F,0,0,1,0,0,0,1 @ F,0,0,1,0,0,0,1 @ F,0,0,1,0,0,0,1 @ F,0,0,1,0,0,0,1 | F,0,0,1,0,2,0,1 @ F,0,0,1,0,2,0,1 @ F,0,0,1,0,2,0,1 @ F,0,0,1,0,2,0,1 @ F,0,0,1,0,2,0,1 @ F,0,0,1,0,2,0,1 @ F,0,0,1,0,2,0,1 @ F,0,0,1,0,2,0,1"
       radius="0"
       unit="px"
       method="auto"
       mode="F"
       chamfer_steps="1"
       flexible="false"
       use_knot_distance="true"
       apply_no_radius="true"
       apply_with_radius="true"
       only_selected="false"
       hide_knots="false" />
    <rect
       x="25.079201"
       y="29.499999"
       width="1030.6361"
       height="959.60197"
       id="rect5" />
    <inkscape:path-effect
       effect="fillet_chamfer"
       id="path-effect5"
       is_visible="true"
       lpeversion="1"
       nodesatellites_param="F,0,0,1,0,0,0,1 @ F,0,0,1,0,0,0,1 @ F,0,0,1,0,0,0,1 @ F,0,0,1,0,0,0,1 @ F,0,0,1,0,0,0,1 @ F,0,0,1,0,0,0,1 @ F,0,0,1,0,0,0,1 @ F,0,0,1,0,0,0,1 @ F,0,0,1,0,0,0,1 @ F,0,0,1,0,0,0,1 @ F,0,0,1,0,2,0,1 @ F,0,0,1,0,0,0,1 @ F,0,0,1,0,0,0,1 @ F,0,0,1,0,0,0,1 @ F,0,0,1,0,0,0,1 @ F,0,0,1,0,0,0,1 @ F,0,0,1,0,0,0,1 @ F,0,0,1,0,0,0,1 @ F,0,0,1,0,2,0,1 @ F,0,0,1,0,0,0,1 @ F,0,0,1,0,0,0,1 @ F,0,0,1,0,0,0,1 @ F,0,0,1,0,0,0,1 @ F,0,0,1,0,0,0,1 @ F,0,0,1,0,0,0,1 @ F,0,0,1,0,0,0,1 @ F,0,0,1,0,0,0,1 @ F,0,0,1,0,0,0,1 @ F,0,0,1,0,0,0,1 @ F,0,0,1,0,0,0,1 @ F,0,0,1,0,0,0,1 @ F,0,0,1,0,0,0,1 @ F,0,0,1,0,0,0,1 @ F,0,0,1,0,0,0,1 @ F,0,0,1,0,0,0,1 @ F,0,0,1,0,0,0,1 @ F,0,0,1,0,0,0,1 @ F,0,0,1,0,0,0,1 @ F,0,0,1,0,0,0,1 @ F,0,0,1,0,0,0,1 @ F,0,0,1,0,2,0,1 @ F,0,0,1,0,0,0,1 @ F,0,0,1,0,0,0,1 @ F,0,0,1,0,0,0,1 @ F,0,0,1,0,0,0,1 @ F,0,0,1,0,0,0,1 @ F,0,0,1,0,0,0,1 @ F,0,0,1,0,0,0,1 @ F,0,0,1,0,0,0,1 @ F,0,0,1,0,0,0,1 @ F,0,0,1,0,2,0,1 @ F,0,0,1,0,0,0,1 @ F,0,0,1,0,0,0,1 @ F,0,0,1,0,0,0,1 @ F,0,0,1,0,0,0,1 @ F,0,0,1,0,0,0,1 @ F,0,0,1,0,0,0,1 @ F,0,0,1,0,0,0,1 @ F,0,0,1,0,0,0,1 @ F,0,0,1,0,2,0,1 @ F,0,0,1,0,0,0,1 @ F,0,0,1,0,0,0,1 @ F,0,0,1,0,0,0,1 @ F,0,0,1,0,0,0,1 @ F,0,0,1,0,0,0,1 @ F,0,0,1,0,0,0,1 @ F,0,0,1,0,0,0,1 @ F,0,0,1,0,0,0,1 @ F,0,0,1,0,2,0,1 @ F,0,0,1,0,0,0,1 @ F,0,0,1,0,0,0,1 @ F,0,0,1,0,2,0,1 @ F,0,0,1,0,0,0,1 @ F,0,0,1,0,0,0,1 @ F,0,0,1,0,0,0,1 @ F,0,0,1,0,0,0,1 @ F,0,0,1,0,0,0,1 @ F,0,0,1,0,2,0,1 @ F,0,0,1,0,0,0,1 @ F,0,0,1,0,0,0,1 @ F,0,0,1,0,0,0,1 @ F,0,0,1,0,0,0,1 @ F,0,0,1,0,0,0,1 @ F,0,0,1,0,0,0,1 @ F,0,0,1,0,0,0,1 @ F,0,0,1,0,0,0,1 @ F,0,0,1,0,0,0,1 @ F,0,0,1,0,2,0,1 @ F,0,0,1,0,0,0,1 @ F,0,0,1,0,0,0,1 @ F,0,0,1,0,0,0,1 | F,0,0,1,0,0,0,1 @ F,0,0,1,0,0,0,1 @ F,0,0,1,0,0,0,1 @ F,0,0,1,0,0,0,1 | F,0,0,1,0,0,0,1 @ F,0,0,1,0,0,0,1 | F,0,0,1,0,0,0,1 @ F,0,0,1,0,0,0,1 @ F,0,0,1,0,0,0,1 @ F,0,0,1,0,0,0,1"
       radius="0"
       unit="px"
       method="auto"
       mode="F"
       chamfer_steps="1"
       flexible="false"
       use_knot_distance="true"
       apply_no_radius="true"
       apply_with_radius="true"
       only_selected="false"
       hide_knots="false" />
    <inkscape:path-effect
       effect="fillet_chamfer"
       id="path-effect4"
       is_visible="true"
       lpeversion="1"
       nodesatellites_param="F,0,0,1,0,2,0,1 @ F,0,0,1,0,2,0,1 @ F,0,0,1,0,2,0,1 @ F,0,0,1,0,2,0,1 | F,0,0,1,0,2,0,1 @ F,0,0,1,0,2,0,1 @ F,0,0,1,0,2,0,1 @ F,0,0,1,0,2,0,1"
       radius="0"
       unit="px"
       method="auto"
       mode="F"
       chamfer_steps="1"
       flexible="false"
       use_knot_distance="true"
       apply_no_radius="true"
       apply_with_radius="true"
       only_selected="false"
       hide_knots="false" />
    <inkscape:path-effect
       effect="mirror_symmetry"
       start_point="1227.9639,166.32106"
       end_point="1227.9639,1036.3211"
       center_point="1227.9639,601.32108"
       id="path-effect3"
       is_visible="true"
       lpeversion="1.2"
       lpesatellites=""
       mode="free"
       discard_orig_path="false"
       fuse_paths="false"
       oposite_fuse="false"
       split_items="false"
       split_open="false"
       link_styles="false" />
    <inkscape:path-effect
       effect="mirror_symmetry"
       start_point="1224.9637,539.32105"
       end_point="1224.9637,834.69591"
       center_point="1224.9637,687.00848"
       id="path-effect2"
       is_visible="true"
       lpeversion="1.2"
       lpesatellites=""
       mode="free"
       discard_orig_path="false"
       fuse_paths="false"
       oposite_fuse="false"
       split_items="false"
       split_open="false"
       link_styles="false" />
    <inkscape:path-effect
       effect="fillet_chamfer"
       id="path-effect1"
       is_visible="true"
       lpeversion="1"
       nodesatellites_param="F,0,0,1,0,0,0,1 @ F,0,0,1,0,0,0,1 @ F,0,0,1,0,0,0,1 @ F,0,0,1,0,0,0,1 @ F,0,0,1,0,0,0,1 @ F,0,0,1,0,0,0,1 @ F,0,0,1,0,0,0,1 @ F,0,0,1,0,0,0,1 @ F,0,0,1,0,0,0,1 @ F,0,0,1,0,0,0,1 @ F,0,0,1,0,2,0,1 @ F,0,0,1,0,0,0,1 @ F,0,0,1,0,0,0,1 @ F,0,0,1,0,0,0,1 @ F,0,0,1,0,0,0,1 @ F,0,0,1,0,0,0,1 @ F,0,0,1,0,2,0,1 @ F,0,0,1,0,2,0,1 @ F,0,0,1,0,0,0,1 @ F,0,0,1,0,0,0,1 @ F,0,0,1,0,0,0,1 @ F,0,0,1,0,0,0,1 @ F,0,0,1,0,0,0,1 @ F,0,0,1,0,2,0,1 @ F,0,0,1,0,2,0,1 @ F,0,0,1,0,0,0,1 @ F,0,0,1,0,0,0,1 @ F,0,0,1,0,0,0,1 @ F,0,0,1,0,0,0,1 @ F,0,0,1,0,0,0,1 @ F,0,0,1,0,0,0,1 @ F,0,0,1,0,2,0,1 @ F,0,0,1,0,2,0,1 @ F,0,0,1,0,0,0,1 @ F,0,0,1,0,0,0,1 @ F,0,0,1,0,0,0,1 @ F,0,0,1,0,0,0,1"
       radius="0"
       unit="px"
       method="auto"
       mode="F"
       chamfer_steps="1"
       flexible="false"
       use_knot_distance="true"
       apply_no_radius="true"
       apply_with_radius="true"
       only_selected="false"
       hide_knots="false" />
    <inkscape:path-effect
       effect="fillet_chamfer"
       id="path-effect23"
       is_visible="true"
       lpeversion="1"
       nodesatellites_param="F,0,0,1,0,0,0,1 @ F,0,0,1,0,0,0,1 @ F,0,0,1,0,0,0,1 @ F,0,0,1,0,0,0,1 @ F,0,0,1,0,0,0,1 @ F,0,0,1,0,0,0,1 @ F,0,0,1,0,0,0,1 @ F,0,0,1,0,0,0,1 @ F,0,0,1,0,0,0,1 @ F,0,0,1,0,0,0,1 @ F,0,0,1,0,0,0,1 @ F,0,0,1,0,0,0,1 @ F,0,0,1,0,0,0,1 @ F,0,0,1,0,0,0,1 @ F,0,0,1,0,0,0,1 @ F,0,0,1,0,0,0,1 @ F,0,0,1,0,0,0,1 @ F,0,0,1,0,0,0,1 @ F,0,0,1,0,0,0,1 @ F,0,0,1,0,0,0,1 @ F,0,0,1,0,0,0,1 @ F,0,0,1,0,0,0,1 @ F,0,0,1,0,0,0,1 @ F,0,0,1,0,0,0,1 @ F,0,0,1,0,0,0,1 @ F,0,0,1,0,0,0,1 @ F,0,0,1,0,0,0,1 @ F,0,0,1,0,0,0,1 @ F,0,0,1,0,0,0,1"
       radius="0"
       unit="px"
       method="auto"
       mode="F"
       chamfer_steps="1"
       flexible="false"
       use_knot_distance="true"
       apply_no_radius="true"
       apply_with_radius="true"
       only_selected="false"
       hide_knots="false" />
    <clipPath
       clipPathUnits="userSpaceOnUse"
       id="clipPath15">
      <rect
         style="fill:#000000"
         id="rect15"
         width="405"
         height="870"
         x="1224.9639"
         y="230.32106"
         ry="0.078125"
         rx="0" />
    </clipPath>
    <clipPath
       clipPathUnits="userSpaceOnUse"
       id="clipPath16">
      <rect
         style="fill:#000000"
         id="rect16"
         width="405"
         height="870"
         x="1224.9639"
         y="230.32106"
         ry="0.078125"
         rx="0" />
    </clipPath>
    <clipPath
       clipPathUnits="userSpaceOnUse"
       id="clipPath17">
      <rect
         style="fill:#000000"
         id="rect17"
         width="405"
         height="870"
         x="1224.9639"
         y="230.32106"
         ry="0.078125"
         rx="0" />
    </clipPath>
    <clipPath
       clipPathUnits="userSpaceOnUse"
       id="clipPath18">
      <rect
         style="fill:#000000"
         id="rect18"
         width="405"
         height="870"
         x="1224.9639"
         y="230.32106"
         ry="0.078125"
         rx="0" />
    </clipPath>
    <clipPath
       clipPathUnits="userSpaceOnUse"
       id="clipPath19">
      <rect
         style="fill:#000000"
         id="rect19"
         width="405"
         height="870"
         x="1224.9639"
         y="230.32106"
         ry="0.078125"
         rx="0" />
    </clipPath>
    <clipPath
       clipPathUnits="userSpaceOnUse"
       id="clipPath20">
      <rect
         style="fill:#000000"
         id="rect20"
         width="405"
         height="870"
         x="1224.9639"
         y="230.32106"
         ry="0.078125"
         rx="0" />
    </clipPath>
    <clipPath
       clipPathUnits="userSpaceOnUse"
       id="clipPath21">
      <rect
         style="fill:#000000"
         id="rect21"
         width="405"
         height="870"
         x="1224.9639"
         y="230.32106"
         ry="0.078125"
         rx="0" />
    </clipPath>
    <clipPath
       clipPathUnits="userSpaceOnUse"
       id="clipPath22">
      <rect
         style="fill:#000000"
         id="rect22"
         width="405"
         height="870"
         x="1224.9639"
         y="230.32106"
         ry="0.078125"
         rx="0" />
    </clipPath>
    <clipPath
       clipPathUnits="userSpaceOnUse"
       id="clipPath23">
      <path
         id="rect23"
         d="m 1225.042,230.32106 h 404.8437 c 0.043,0 0.078,0.0348 0.078,0.0781 v 869.84374 c 0,0.043 -0.035,0.078 -0.078,0.078 H 1225.042 c -0.043,0 -0.078,-0.035 -0.078,-0.078 V 230.39919 c 0,-0.0433 0.035,-0.0781 0.078,-0.0781 z m -0.1566,0 H 820.0417 c -0.043,0 -0.078,0.0348 -0.078,0.0781 v 869.84374 c 0,0.043 0.035,0.078 0.078,0.078 h 404.8437 c 0.043,0 0.078,-0.035 0.078,-0.078 V 230.39919 c 0,-0.0433 -0.035,-0.0781 -0.078,-0.0781 z m 0,0 H 820.0417 c -0.043,0 -0.078,0.0348 -0.078,0.0781 v 869.84374 c 0,0.043 0.035,0.078 0.078,0.078 h 404.8437 c 0.043,0 0.078,-0.035 0.078,-0.078 V 230.39919 c 0,-0.0433 -0.035,-0.0781 -0.078,-0.0781 z m 0.1566,0 h 404.8437 c 0.043,0 0.078,0.0348 0.078,0.0781 v 869.84374 c 0,0.043 -0.035,0.078 -0.078,0.078 H 1225.042 c -0.043,0 -0.078,-0.035 -0.078,-0.078 V 230.39919 c 0,-0.0433 0.035,-0.0781 0.078,-0.0781 z"
         style="fill:#000000" />
    </clipPath>
    <clipPath
       clipPathUnits="userSpaceOnUse"
       id="clipPath22-9">
      <path
         id="rect22-0"
         d="m 1225.042,230.32106 h 404.8437 c 0.043,0 0.078,0.0348 0.078,0.0781 v 869.84374 c 0,0.043 -0.035,0.078 -0.078,0.078 H 1225.042 c -0.043,0 -0.078,-0.035 -0.078,-0.078 V 230.39919 c 0,-0.0433 0.035,-0.0781 0.078,-0.0781 z"
         style="fill:#000000" />
    </clipPath>
    <inkscape:path-effect
       effect="mirror_symmetry"
       start_point="1227.9639,166.32106"
       end_point="1227.9639,1036.3211"
       center_point="1227.9639,601.32108"
       id="path-effect3-5"
       is_visible="true"
       lpeversion="1.2"
       lpesatellites=""
       mode="free"
       discard_orig_path="false"
       fuse_paths="false"
       oposite_fuse="false"
       split_items="false"
       split_open="false"
       link_styles="false" />
    <clipPath
       clipPathUnits="userSpaceOnUse"
       id="clipPath21-7">
      <rect
         style="fill:#000000"
         id="rect21-3"
         width="405"
         height="870"
         x="1224.9639"
         y="230.32106"
         ry="0.078125"
         rx="0" />
    </clipPath>
  </defs>
  <g
     inkscape:groupmode="layer"
     id="layer1"
     inkscape:label="questions">
    <path
       d="M 38.760078,554.99875 V 79.02448 a 2,2 135 0 1 2,-2 l 70.480002,0 a 2,2 45 0 1 2,2 v 33.62 a 2,2 135 0 1 -2,2 l -25.640002,0 a 2,2 135 0 0 -2,2 v 400.73427 a 2,2 45 0 0 2,2 h 25.640002 a 2,2 45 0 1 2,2 v 33.62 a 2,2 135 0 1 -2,2 H 40.760078 a 2,2 45 0 1 -2,-2 z m 197.879842,-189.138 h -46.16 a 2,2 45 0 1 -2,-2 v -13.96 c 0,-13.42667 2.28,-24.44667 6.84,-33.06 4.56,-8.86667 11.02,-17.22667 19.38,-25.08 l 6.46,-6.84 c 3.54667,-3.8 6.58667,-7.72667 9.12,-11.78 2.78667,-4.30667 4.18,-9.12 4.18,-14.44 0,-8.10667 -1.64667,-14.44 -4.94,-19 -3.29333,-4.81333 -8.61333,-7.22 -15.96,-7.22 -4.30667,0 -7.98,1.01333 -11.02,3.04 -3.04,2.02667 -5.57333,4.56 -7.6,7.6 -1.77333,3.04 -3.29333,6.33333 -4.56,9.88 -0.79629,2.78704 -1.35794,5.41763 -1.68493,7.8918 -0.1447,1.09494 -1.09701,1.83336 -2.18494,1.64235 l -45.84026,-8.0483 c -1.08793,-0.19101 -1.85771,-1.2343 -1.69955,-2.32747 1.32439,-9.15376 3.64095,-17.86655 6.94968,-26.13838 3.8,-8.86667 8.86667,-16.72 15.2,-23.56 6.58667,-6.84 14.44,-12.28667 23.56,-16.34 9.12,-4.05333 19.88667,-6.08 32.3,-6.08 22.29333,0 40.02667,6.46 53.2,19.38 13.42667,12.92 20.14,31.28667 20.14,55.1 0,8.10667 -0.88667,15.32667 -2.66,21.66 -1.77333,6.33333 -4.18,12.16 -7.22,17.48 -3.04,5.32 -6.71333,10.38667 -11.02,15.2 -4.30667,4.56 -9.12,9.12 -14.44,13.68 -6.58667,5.82667 -11.02,11.27333 -13.3,16.34 -2.02667,4.81333 -3.04,10.26 -3.04,16.34 l 0,8.64 a 2,2 135 0 1 -2,2 z m 11.88,59.66 c 0,9.62667 -3.04,17.73333 -9.12,24.32 -5.82667,6.58667 -13.55333,9.88 -23.18,9.88 -9.62667,0 -17.48,-3.29333 -23.56,-9.88 -5.82667,-6.58667 -8.74,-14.69333 -8.74,-24.32 0,-9.37333 2.91333,-17.48 8.74,-24.32 6.08,-6.84 13.93333,-10.26 23.56,-10.26 9.62667,0 17.35333,3.42 23.18,10.26 6.08,6.84 9.12,14.94667 9.12,24.32 z m 79.40692,-62.79996 -1.11823,-173.46008 a 1.9871484,1.9871484 134.81532 0 1 1.98711,-1.99996 h 54.9 a 2.0129347,2.0129347 44.815322 0 1 2.01289,1.99996 l 1.11823,173.46008 a 1.9871484,1.9871484 134.81532 0 1 -1.98711,1.99996 h -54.9 a 2.0129347,2.0129347 44.815322 0 1 -2.01289,-1.99996 z m 61.57289,62.79996 c 0,9.62667 -3.04,17.73333 -9.12,24.32 -5.82667,6.58667 -13.55333,9.88 -23.18,9.88 -9.37333,0 -17.1,-3.29333 -23.18,-9.88 -5.82667,-6.58667 -8.74,-14.69333 -8.74,-24.32 0,-9.37333 2.91333,-17.48 8.74,-24.32 6.08,-6.84 13.80667,-10.26 23.18,-10.26 9.62667,0 17.35333,3.42 23.18,10.26 6.08,6.84 9.12,14.94667 9.12,24.32 z m 47.87564,129.478 v -33.62 a 2,2 135 0 1 2,-2 h 25.64 a 2,2 135 0 0 2,-2 V 116.64448 a 2,2 45 0 0 -2,-2 l -25.64,0 a 2,2 45 0 1 -2,-2 v -33.62 a 2,2 135 0 1 2,-2 h 70.1 a 2,2 45 0 1 2,2 v 475.97427 a 2,2 135 0 1 -2,2 h -70.1 a 2,2 45 0 1 -2,-2 z"
       id="text5"
       style="-inkscape-font-specification:'Avenir Next Condensed,  Bold';stroke-width:30;stroke-linecap:round"
       transform="translate(-13.760074,-51.900184)"
       aria-label="[?!]"
       sodipodi:nodetypes="cccccccccccsccccscssccccccsscssscccscscscscscscccccscscscscsccccccccc"
       inkscape:path-effect="#path-effect6"
       inkscape:original-d="M 38.760078,556.99875 V 77.02448 h 74.480002 v 37.62 H 83.600078 v 404.73427 h 29.640002 v 37.62 z m 199.879842,-191.138 h -50.16 v -15.96 c 0,-13.42667 2.28,-24.44667 6.84,-33.06 4.56,-8.86667 11.02,-17.22667 19.38,-25.08 l 6.46,-6.84 c 3.54667,-3.8 6.58667,-7.72667 9.12,-11.78 2.78667,-4.30667 4.18,-9.12 4.18,-14.44 0,-8.10667 -1.64667,-14.44 -4.94,-19 -3.29333,-4.81333 -8.61333,-7.22 -15.96,-7.22 -4.30667,0 -7.98,1.01333 -11.02,3.04 -3.04,2.02667 -5.57333,4.56 -7.6,7.6 -1.77333,3.04 -3.29333,6.33333 -4.56,9.88 -1.01333,3.54667 -1.64667,6.84 -1.9,9.88 l -49.78,-8.74 c 1.26667,-9.88 3.67333,-19.25333 7.22,-28.12 3.8,-8.86667 8.86667,-16.72 15.2,-23.56 6.58667,-6.84 14.44,-12.28667 23.56,-16.34 9.12,-4.05333 19.88667,-6.08 32.3,-6.08 22.29333,0 40.02667,6.46 53.2,19.38 13.42667,12.92 20.14,31.28667 20.14,55.1 0,8.10667 -0.88667,15.32667 -2.66,21.66 -1.77333,6.33333 -4.18,12.16 -7.22,17.48 -3.04,5.32 -6.71333,10.38667 -11.02,15.2 -4.30667,4.56 -9.12,9.12 -14.44,13.68 -6.58667,5.82667 -11.02,11.27333 -13.3,16.34 -2.02667,4.81333 -3.04,10.26 -3.04,16.34 z m 9.88,59.66 c 0,9.62667 -3.04,17.73333 -9.12,24.32 -5.82667,6.58667 -13.55333,9.88 -23.18,9.88 -9.62667,0 -17.48,-3.29333 -23.56,-9.88 -5.82667,-6.58667 -8.74,-14.69333 -8.74,-24.32 0,-9.37333 2.91333,-17.48 8.74,-24.32 6.08,-6.84 13.93333,-10.26 23.56,-10.26 9.62667,0 17.35333,3.42 23.18,10.26 6.08,6.84 9.12,14.94667 9.12,24.32 z m 79.41981,-60.8 -1.14401,-177.46 h 58.9 l 1.14401,177.46 z m 61.56,60.8 c 0,9.62667 -3.04,17.73333 -9.12,24.32 -5.82667,6.58667 -13.55333,9.88 -23.18,9.88 -9.37333,0 -17.1,-3.29333 -23.18,-9.88 -5.82667,-6.58667 -8.74,-14.69333 -8.74,-24.32 0,-9.37333 2.91333,-17.48 8.74,-24.32 6.08,-6.84 13.80667,-10.26 23.18,-10.26 9.62667,0 17.35333,3.42 23.18,10.26 6.08,6.84 9.12,14.94667 9.12,24.32 z m 47.87564,131.478 v -37.62 h 29.64 l 0,-404.73427 h -29.64 v -37.62 h 74.1 l 0,479.97427 z" />
  </g>
</svg>
