<?xml version="1.0" encoding="UTF-8" standalone="no"?>
<!-- Created with Inkscape (http://www.inkscape.org/) -->

<svg
   width="522.71503"
   height="530.10199"
   viewBox="0 0 522.71502 530.10199"
   version="1.1"
   id="svg5"
   inkscape:version="1.3.1 (91b66b0, 2023-11-16)"
   sodipodi:docname="web_V03.svg"
   xml:space="preserve"
   xmlns:inkscape="http://www.inkscape.org/namespaces/inkscape"
   xmlns:sodipodi="http://sodipodi.sourceforge.net/DTD/sodipodi-0.dtd"
   xmlns="http://www.w3.org/2000/svg"
   xmlns:svg="http://www.w3.org/2000/svg"><sodipodi:namedview
     id="namedview7"
     pagecolor="#505050"
     bordercolor="#eeeeee"
     borderopacity="1"
     inkscape:showpageshadow="0"
     inkscape:pageopacity="0"
     inkscape:pagecheckerboard="0"
     inkscape:deskcolor="#505050"
     inkscape:document-units="px"
     showgrid="false"
     showguides="true"
     inkscape:zoom="1.4142136"
     inkscape:cx="133.28962"
     inkscape:cy="193.74725"
     inkscape:window-width="2560"
     inkscape:window-height="1387"
     inkscape:window-x="1440"
     inkscape:window-y="25"
     inkscape:window-maximized="0"
     inkscape:current-layer="layer6"><sodipodi:guide
       position="262.15788,530.10199"
       orientation="1,0"
       id="guide2880"
       inkscape:locked="false" /><sodipodi:guide
       position="80.13234,25.00342"
       orientation="0,-1"
       id="guide2906"
       inkscape:locked="false" /><sodipodi:guide
       position="543,265.10199"
       orientation="0,-1"
       id="guide2910"
       inkscape:locked="false" /><sodipodi:guide
       position="25.000004,266.35116"
       orientation="1,0"
       id="guide4"
       inkscape:locked="false" /><sodipodi:guide
       position="455.09653,505.10199"
       orientation="0,-1"
       id="guide5"
       inkscape:locked="false" /><sodipodi:guide
       position="499.31578,-191.85006"
       orientation="1,0"
       id="guide6"
       inkscape:locked="false" /><sodipodi:guide
       position="262.33661,25.000013"
       orientation="0,-1"
       id="guide7"
       inkscape:locked="false" /><inkscape:grid
       id="grid8"
       units="px"
       originx="0"
       originy="0"
       spacingx="0.99999999"
       spacingy="1"
       empcolor="#0099e5"
       empopacity="0.30196078"
       color="#0099e5"
       opacity="0.14901961"
       empspacing="5"
       dotted="false"
       gridanglex="30"
       gridanglez="30"
       visible="false" /><sodipodi:guide
       position="137.38008,505.10199"
       orientation="1,0"
       id="guide41"
       inkscape:locked="false" /><sodipodi:guide
       position="233.55504,359.23054"
       orientation="0,-1"
       id="guide42"
       inkscape:locked="false" /><sodipodi:guide
       position="387.03799,505.10199"
       orientation="1,0"
       id="guide43"
       inkscape:locked="false" /><sodipodi:guide
       position="25.000007,145.05099"
       orientation="0,-1"
       id="guide44"
       inkscape:locked="false" /><sodipodi:guide
       position="249.65788,517.602"
       orientation="1,0"
       id="guide45"
       inkscape:locked="false" /><sodipodi:guide
       position="274.59942,120.36374"
       orientation="1,0"
       id="guide46"
       inkscape:locked="false" /><sodipodi:guide
       position="-50.715927,290.05099"
       orientation="0,-1"
       id="guide47"
       inkscape:locked="false" /><sodipodi:guide
       position="-50.715927,240.05099"
       orientation="0,-1"
       id="guide48"
       inkscape:locked="false" /><sodipodi:guide
       position="25.000007,175.06372"
       orientation="0,-1"
       id="guide84"
       inkscape:locked="false" /><sodipodi:guide
       position="422.45211,317.57287"
       orientation="1,0"
       id="guide20"
       inkscape:locked="false" /><sodipodi:guide
       position="25.000007,205.07649"
       orientation="0,-1"
       id="guide1"
       inkscape:locked="false" /></sodipodi:namedview><defs
     id="defs2"><inkscape:path-effect
       effect="fillet_chamfer"
       id="path-effect20"
       is_visible="true"
       lpeversion="1"
       nodesatellites_param="F,0,0,1,0,2,0,1 @ F,0,0,1,0,2,0,1 @ F,0,0,1,0,2,0,1 @ F,0,0,1,0,2,0,1 @ F,0,0,1,0,2,0,1 @ F,0,0,1,0,2,0,1 @ F,0,0,1,0,2,0,1 @ F,0,0,1,0,2,0,1 @ F,0,0,1,0,2,0,1 @ F,0,0,1,0,2,0,1 @ F,0,0,1,0,2,0,1 @ F,0,0,1,0,2,0,1 @ F,0,0,1,0,2,0,1"
       radius="0"
       unit="px"
       method="auto"
       mode="F"
       chamfer_steps="1"
       flexible="false"
       use_knot_distance="true"
       apply_no_radius="true"
       apply_with_radius="true"
       only_selected="false"
       hide_knots="false" /><inkscape:path-effect
       effect="fillet_chamfer"
       id="path-effect19"
       is_visible="true"
       lpeversion="1"
       nodesatellites_param="F,0,0,1,0,2,0,1 @ F,0,0,1,0,2,0,1 @ F,0,0,1,0,2,0,1 @ F,0,0,1,0,2,0,1 @ F,0,0,1,0,2,0,1 @ F,0,0,1,0,2,0,1 @ F,0,0,1,0,2,0,1 @ F,0,0,1,0,2,0,1 @ F,0,0,1,0,2,0,1 @ F,0,0,1,0,2,0,1 @ F,0,0,1,0,2,0,1 @ F,0,0,1,0,2,0,1 @ F,0,0,1,0,2,0,1"
       radius="0"
       unit="px"
       method="auto"
       mode="F"
       chamfer_steps="1"
       flexible="false"
       use_knot_distance="true"
       apply_no_radius="true"
       apply_with_radius="true"
       only_selected="false"
       hide_knots="false" /><inkscape:path-effect
       effect="fillet_chamfer"
       id="path-effect18"
       is_visible="true"
       lpeversion="1"
       nodesatellites_param="F,0,0,1,0,0,0,1 @ F,0,0,1,0,0,0,1 @ F,0,0,1,0,2,0,1 @ F,0,0,1,0,2,0,1 @ F,0,0,1,0,0,0,1 @ F,0,0,1,0,0,0,1"
       radius="0"
       unit="px"
       method="auto"
       mode="F"
       chamfer_steps="1"
       flexible="false"
       use_knot_distance="true"
       apply_no_radius="true"
       apply_with_radius="true"
       only_selected="false"
       hide_knots="false" /><inkscape:path-effect
       effect="fillet_chamfer"
       id="path-effect17"
       is_visible="true"
       lpeversion="1"
       nodesatellites_param="F,0,0,1,0,2,0,1 @ F,0,0,1,0,0,0,1 @ F,0,0,1,0,0,0,1 @ F,0,0,1,0,2,0,1 @ F,0,0,1,0,0,0,1 @ F,0,0,1,0,2,0,1 | F,0,0,1,0,0,0,1 @ F,0,0,1,0,0,0,1 @ F,0,0,1,0,0,0,1"
       radius="0"
       unit="px"
       method="auto"
       mode="F"
       chamfer_steps="1"
       flexible="false"
       use_knot_distance="true"
       apply_no_radius="true"
       apply_with_radius="true"
       only_selected="false"
       hide_knots="false" /><inkscape:path-effect
       effect="fillet_chamfer"
       id="path-effect16"
       is_visible="true"
       lpeversion="1"
       nodesatellites_param="F,0,0,1,0,0,0,1 @ F,0,0,1,0,0,0,1 @ F,0,0,1,0,2,0,1 @ F,0,0,1,0,2,0,1 | F,0,0,1,0,2,0,1 @ F,0,0,1,0,2,0,1 @ F,0,0,1,0,2,0,1 @ F,0,0,1,0,2,0,1"
       radius="0"
       unit="px"
       method="auto"
       mode="F"
       chamfer_steps="1"
       flexible="false"
       use_knot_distance="true"
       apply_no_radius="true"
       apply_with_radius="true"
       only_selected="false"
       hide_knots="false" /><inkscape:path-effect
       effect="mirror_symmetry"
       start_point="137.27897,265"
       end_point="387.03679,265"
       center_point="262.15788,265"
       id="path-effect15"
       is_visible="true"
       lpeversion="1.2"
       lpesatellites=""
       mode="free"
       discard_orig_path="false"
       fuse_paths="false"
       oposite_fuse="false"
       split_items="false"
       split_open="false"
       link_styles="false" /><inkscape:path-effect
       effect="mirror_symmetry"
       start_point="262.1582,343.5293"
       end_point="262.1582,506.59766"
       center_point="262.1582,425.06348"
       id="path-effect10"
       is_visible="true"
       lpeversion="1.2"
       lpesatellites=""
       mode="free"
       discard_orig_path="false"
       fuse_paths="false"
       oposite_fuse="false"
       split_items="false"
       split_open="false"
       link_styles="false" /><inkscape:path-effect
       effect="mirror_symmetry"
       start_point="24.99967,265"
       end_point="499.31609,265"
       center_point="262.15788,265"
       id="path-effect9"
       is_visible="true"
       lpeversion="1.2"
       lpesatellites=""
       mode="free"
       discard_orig_path="false"
       fuse_paths="false"
       oposite_fuse="false"
       split_items="false"
       split_open="false"
       link_styles="false" /><inkscape:path-effect
       effect="mirror_symmetry"
       start_point="262.1582,346.77411"
       end_point="262.1582,510.17428"
       center_point="262.1582,428.4742"
       id="path-effect8"
       is_visible="true"
       lpeversion="1.2"
       lpesatellites=""
       mode="free"
       discard_orig_path="false"
       fuse_paths="false"
       oposite_fuse="false"
       split_items="false"
       split_open="false"
       link_styles="false" /><inkscape:path-effect
       effect="mirror_symmetry"
       start_point="105.19694,265"
       end_point="419.11882,265"
       center_point="262.15788,265"
       id="path-effect7"
       is_visible="true"
       lpeversion="1.2"
       lpesatellites=""
       mode="free"
       discard_orig_path="false"
       fuse_paths="false"
       oposite_fuse="false"
       split_items="false"
       split_open="false"
       link_styles="false" /><inkscape:path-effect
       effect="mirror_symmetry"
       start_point="262.1582,312.92123"
       end_point="262.1582,390.21419"
       center_point="262.1582,351.56771"
       id="path-effect87"
       is_visible="true"
       lpeversion="1.2"
       lpesatellites=""
       mode="free"
       discard_orig_path="false"
       fuse_paths="false"
       oposite_fuse="false"
       split_items="false"
       split_open="false"
       link_styles="false" /><rect
       x="25.455844"
       y="242.53762"
       width="539.52247"
       height="153.44217"
       id="rect84" /><inkscape:path-effect
       effect="mirror_symmetry"
       start_point="106.78092,265.04883"
       end_point="417.53484,265.04883"
       center_point="262.15788,265.04883"
       id="path-effect84"
       is_visible="true"
       lpeversion="1.2"
       lpesatellites=""
       mode="free"
       discard_orig_path="false"
       fuse_paths="false"
       oposite_fuse="false"
       split_items="false"
       split_open="false"
       link_styles="false" /><inkscape:path-effect
       effect="mirror_symmetry"
       start_point="262.1582,329.56683"
       end_point="262.1582,409.94879"
       center_point="262.1582,369.75781"
       id="path-effect83"
       is_visible="true"
       lpeversion="1.2"
       lpesatellites=""
       mode="free"
       discard_orig_path="false"
       fuse_paths="false"
       oposite_fuse="false"
       split_items="false"
       split_open="false"
       link_styles="false" /><inkscape:path-effect
       effect="mirror_symmetry"
       start_point="135.45475,265.04883"
       end_point="388.86101,265.04883"
       center_point="262.15788,265.04883"
       id="path-effect82"
       is_visible="true"
       lpeversion="1.2"
       lpesatellites=""
       mode="free"
       discard_orig_path="false"
       fuse_paths="false"
       oposite_fuse="false"
       split_items="false"
       split_open="false"
       link_styles="false" /><inkscape:path-effect
       effect="mirror_symmetry"
       start_point="262.1582,269.17089"
       end_point="262.1582,509.21973"
       center_point="262.1582,389.19531"
       id="path-effect81"
       is_visible="true"
       lpeversion="1.2"
       lpesatellites=""
       mode="free"
       discard_orig_path="false"
       fuse_paths="false"
       oposite_fuse="false"
       split_items="false"
       split_open="false"
       link_styles="false" /><inkscape:path-effect
       effect="mirror_symmetry"
       start_point="24.1993,265.05099"
       end_point="498.51572,265.05099"
       center_point="261.35751,265.05099"
       id="path-effect80"
       is_visible="true"
       lpeversion="1.2"
       lpesatellites=""
       mode="free"
       discard_orig_path="false"
       fuse_paths="false"
       oposite_fuse="false"
       split_items="false"
       split_open="false"
       link_styles="false" /><inkscape:path-effect
       effect="mirror_symmetry"
       start_point="262.1582,269.18552"
       end_point="262.1582,509.2051"
       center_point="262.1582,389.19531"
       id="path-effect79"
       is_visible="true"
       lpeversion="1.2"
       lpesatellites=""
       mode="free"
       discard_orig_path="false"
       fuse_paths="false"
       oposite_fuse="false"
       split_items="false"
       split_open="false"
       link_styles="false" /><inkscape:path-effect
       effect="fillet_chamfer"
       id="path-effect51"
       is_visible="true"
       lpeversion="1"
       nodesatellites_param="F,0,0,1,0,2,0,1 @ F,0,0,1,0,2,0,1 @ F,0,0,1,0,2,0,1 @ F,0,0,1,0,2,0,1 @ F,0,0,1,0,2,0,1 @ F,0,0,1,0,2,0,1 | F,0,0,1,0,2,0,1 @ F,0,0,1,0,2,0,1 @ F,0,0,1,0,2,0,1 @ F,0,0,1,0,2,0,1 @ F,0,0,1,0,2,0,1 @ F,0,0,1,0,2,0,1"
       radius="0"
       unit="px"
       method="auto"
       mode="F"
       chamfer_steps="1"
       flexible="false"
       use_knot_distance="true"
       apply_no_radius="true"
       apply_with_radius="true"
       only_selected="false"
       hide_knots="false" /><inkscape:path-effect
       effect="fillet_chamfer"
       id="path-effect50"
       is_visible="true"
       lpeversion="1"
       nodesatellites_param="F,0,0,1,0,0,0,1 @ F,0,0,1,0,0,0,1 @ F,0,0,1,0,0,0,1"
       radius="0"
       unit="px"
       method="auto"
       mode="F"
       chamfer_steps="1"
       flexible="false"
       use_knot_distance="true"
       apply_no_radius="true"
       apply_with_radius="true"
       only_selected="false"
       hide_knots="false" /><inkscape:path-effect
       effect="fillet_chamfer"
       id="path-effect36"
       is_visible="true"
       lpeversion="1"
       nodesatellites_param="F,0,0,1,0,2,0,1 @ F,0,0,1,0,2,0,1 @ F,0,0,1,0,2,0,1 @ F,0,0,1,0,2,0,1 | F,0,0,1,0,2,0,1 @ F,0,0,1,0,2,0,1 @ F,0,0,1,0,2,0,1 @ F,0,0,1,0,2,0,1 @ F,0,0,1,0,2,0,1 @ F,0,0,1,0,2,0,1 | F,0,0,1,0,2,0,1 @ F,0,0,1,0,2,0,1 @ F,0,0,1,0,2,0,1 @ F,0,0,1,0,2,0,1 @ F,0,0,1,0,2,0,1 @ F,0,0,1,0,2,0,1 @ F,0,0,1,0,2,0,1 @ F,0,0,1,0,2,0,1 | F,0,0,1,0,2,0,1 @ F,0,0,1,0,2,0,1 @ F,0,0,1,0,0,0,1 @ F,0,0,1,0,2,0,1 @ F,0,0,1,0,2,0,1 @ F,0,0,1,0,2,0,1 @ F,0,0,1,0,2,0,1 @ F,0,0,1,0,2,0,1 | F,0,0,1,0,2,0,1 @ F,0,0,1,0,2,0,1 @ F,0,0,1,0,2,0,1 @ F,0,0,1,0,2,0,1 @ F,0,0,1,0,2,0,1 @ F,0,0,1,0,2,0,1"
       radius="0"
       unit="px"
       method="auto"
       mode="F"
       chamfer_steps="1"
       flexible="false"
       use_knot_distance="true"
       apply_no_radius="true"
       apply_with_radius="true"
       only_selected="false"
       hide_knots="false" /><inkscape:path-effect
       effect="fillet_chamfer"
       id="path-effect35"
       is_visible="true"
       lpeversion="1"
       nodesatellites_param="F,0,0,1,0,0,0,1 @ F,0,0,1,0,0,0,1 @ F,0,0,1,0,0,0,1 @ F,0,0,1,0,0,0,1 | F,0,0,1,0,0,0,1 @ F,0,0,1,0,0,0,1 @ F,0,0,1,0,0,0,1 @ F,0,0,1,0,0,0,1 @ F,0,0,1,0,0,0,1 @ F,0,0,1,0,0,0,1 | F,0,0,1,0,0,0,1 @ F,0,0,1,0,0,0,1 @ F,0,0,1,0,0,0,1 @ F,0,0,1,0,0,0,1 @ F,0,0,1,0,0,0,1 @ F,0,0,1,0,0,0,1 @ F,0,0,1,0,0,0,1 @ F,0,0,1,0,0,0,1 | F,0,0,1,0,0,0,1 @ F,0,0,1,0,0,0,1 @ F,0,0,1,0,0,0,1 @ F,0,0,1,0,0,0,1 @ F,0,0,1,0,0,0,1 @ F,0,0,1,0,0,0,1 @ F,0,0,1,0,0,0,1 @ F,0,0,1,0,0,0,1 | F,0,0,1,0,0,0,1 @ F,0,0,1,0,0,0,1 @ F,0,0,1,0,0,0,1 @ F,0,0,1,0,0,0,1 @ F,0,0,1,0,0,0,1 @ F,0,0,1,0,0,0,1"
       radius="0"
       unit="px"
       method="auto"
       mode="F"
       chamfer_steps="1"
       flexible="false"
       use_knot_distance="true"
       apply_no_radius="true"
       apply_with_radius="true"
       only_selected="false"
       hide_knots="false" /><inkscape:path-effect
       effect="fillet_chamfer"
       id="path-effect26"
       is_visible="true"
       lpeversion="1"
       nodesatellites_param="F,0,0,1,0,2,0,1 @ F,0,0,1,0,2,0,1 @ F,0,0,1,0,0,0,1 @ F,0,0,1,0,0,0,1 | F,0,0,1,0,2,0,1 @ F,0,0,1,0,2,0,1 @ F,0,0,1,0,0,0,1 @ F,0,0,1,0,0,0,1 @ F,0,0,1,0,0,0,1 @ F,0,0,1,0,0,0,1 @ F,0,0,1,0,0,0,1 @ F,0,0,1,0,0,0,1 @ F,0,0,1,0,0,0,1 @ F,0,0,1,0,0,0,1 @ F,0,0,1,0,0,0,1 @ F,0,0,1,0,0,0,1 @ F,0,0,1,0,0,0,1 @ F,0,0,1,0,0,0,1 @ F,0,0,1,0,0,0,1 @ F,0,0,1,0,0,0,1 @ F,0,0,1,0,0,0,1 @ F,0,0,1,0,0,0,1 @ F,0,0,1,0,0,0,1 @ F,0,0,1,0,0,0,1 @ F,0,0,1,0,0,0,1 @ F,0,0,1,0,0,0,1 @ F,0,0,1,0,0,0,1 @ F,0,0,1,0,0,0,1 @ F,0,0,1,0,0,0,1 @ F,0,0,1,0,0,0,1 @ F,0,0,1,0,0,0,1 @ F,0,0,1,0,2,0,1"
       radius="0"
       unit="px"
       method="auto"
       mode="F"
       chamfer_steps="1"
       flexible="false"
       use_knot_distance="true"
       apply_no_radius="true"
       apply_with_radius="true"
       only_selected="false"
       hide_knots="false" /><inkscape:path-effect
       effect="fillet_chamfer"
       id="path-effect6"
       is_visible="true"
       lpeversion="1"
       nodesatellites_param="F,0,0,1,0,2,0,1 @ F,0,0,1,0,0,0,1 @ F,0,0,1,0,2,0,1 @ F,0,0,1,0,0,0,1 @ F,0,0,1,0,2,0,1 @ F,0,0,1,0,0,0,1 @ F,0,0,1,0,2,0,1 @ F,0,0,1,0,0,0,1 @ F,0,0,1,0,2,0,1 @ F,0,0,1,0,0,0,1 @ F,0,0,1,0,2,0,1 @ F,0,0,1,0,0,0,1 @ F,0,0,1,0,2,0,1 @ F,0,0,1,0,0,0,1 @ F,0,0,1,0,0,0,1 @ F,0,0,1,0,2,0,1 @ F,0,0,1,0,2,0,1 @ F,0,0,1,0,0,0,1 @ F,0,0,1,0,0,0,1 @ F,0,0,1,0,2,0,1 @ F,0,0,1,0,0,0,1 @ F,0,0,1,0,0,0,1 @ F,0,0,1,0,0,0,1 @ F,0,0,1,0,0,0,1 @ F,0,0,1,0,0,0,1 @ F,0,0,1,0,2,0,1 @ F,0,0,1,0,0,0,1 @ F,0,0,1,0,0,0,1"
       radius="0"
       unit="px"
       method="auto"
       mode="F"
       chamfer_steps="1"
       flexible="false"
       use_knot_distance="true"
       apply_no_radius="true"
       apply_with_radius="true"
       only_selected="false"
       hide_knots="false" /><inkscape:path-effect
       effect="fillet_chamfer"
       id="path-effect14"
       is_visible="true"
       lpeversion="1"
       nodesatellites_param="F,0,0,1,0,0,0,1 @ F,0,0,1,0,0,0,1 @ F,0,0,1,0,2,0,1 @ F,0,0,1,0,0,0,1 @ F,0,0,1,0,0,0,1 @ F,0,0,1,0,0,0,1 @ F,0,0,1,0,2,0,1 @ F,0,0,1,0,2,0,1 @ F,0,0,1,0,0,0,1"
       radius="0"
       unit="px"
       method="auto"
       mode="F"
       chamfer_steps="1"
       flexible="false"
       use_knot_distance="true"
       apply_no_radius="true"
       apply_with_radius="true"
       only_selected="false"
       hide_knots="false" /><inkscape:path-effect
       effect="fillet_chamfer"
       id="path-effect13"
       is_visible="true"
       lpeversion="1"
       nodesatellites_param="F,0,0,1,0,2,0,1 @ F,0,0,1,0,2,0,1 @ F,0,0,1,0,2,0,1 @ F,0,0,1,0,2,0,1 | F,0,0,1,0,2,0,1 @ F,0,0,1,0,2,0,1 @ F,0,0,1,0,2,0,1 @ F,0,0,1,0,2,0,1"
       radius="0"
       unit="px"
       method="auto"
       mode="F"
       chamfer_steps="1"
       flexible="false"
       use_knot_distance="true"
       apply_no_radius="true"
       apply_with_radius="true"
       only_selected="false"
       hide_knots="false" /><inkscape:path-effect
       effect="fillet_chamfer"
       id="path-effect12"
       is_visible="true"
       lpeversion="1"
       nodesatellites_param="F,0,0,1,0,0,0,1 @ F,0,0,1,0,2,0,1 @ F,0,0,1,0,2,0,1 @ F,0,0,1,0,2,0,1 @ F,0,0,1,0,2,0,1 @ F,0,0,1,0,2,0,1 @ F,0,0,1,0,0,0,1 @ F,0,0,1,0,0,0,1 @ F,0,0,1,0,0,0,1 @ F,0,0,1,0,0,0,1 @ F,0,0,1,0,2,0,1 @ F,0,0,1,0,2,0,1 @ F,0,0,1,0,2,0,1 @ F,0,0,1,0,2,0,1 @ F,0,0,1,0,2,0,1 @ F,0,0,1,0,0,0,1"
       radius="0"
       unit="px"
       method="auto"
       mode="F"
       chamfer_steps="1"
       flexible="false"
       use_knot_distance="true"
       apply_no_radius="true"
       apply_with_radius="true"
       only_selected="false"
       hide_knots="false" /><inkscape:path-effect
       effect="fillet_chamfer"
       id="path-effect11"
       is_visible="true"
       lpeversion="1"
       nodesatellites_param="F,0,0,1,0,0,0,1 @ F,0,0,1,0,0,0,1 @ F,0,0,1,0,0,0,1 @ F,0,0,1,0,0,0,1 @ F,0,0,1,0,0,0,1 @ F,0,0,1,0,0,0,1 @ F,0,0,1,0,0,0,1 @ F,0,0,1,0,0,0,1 @ F,0,0,1,0,0,0,1 @ F,0,0,1,0,0,0,1 @ F,0,0,1,0,0,0,1 @ F,0,0,1,0,0,0,1 @ F,0,0,1,0,0,0,1 @ F,0,0,1,0,0,0,1 @ F,0,0,1,0,0,0,1 @ F,0,0,1,0,0,0,1"
       radius="0"
       unit="px"
       method="auto"
       mode="F"
       chamfer_steps="1"
       flexible="false"
       use_knot_distance="true"
       apply_no_radius="true"
       apply_with_radius="true"
       only_selected="false"
       hide_knots="false" /><inkscape:path-effect
       effect="fillet_chamfer"
       id="path-effect5"
       is_visible="true"
       lpeversion="1"
       nodesatellites_param="F,0,0,1,0,2,0,1 @ F,0,0,1,0,2,0,1 @ F,0,0,1,0,2,0,1 @ F,0,0,1,0,2,0,1 | F,0,0,1,0,2,0,1 @ F,0,0,1,0,2,0,1 @ F,0,0,1,0,2,0,1 @ F,0,0,1,0,2,0,1"
       radius="0"
       unit="px"
       method="auto"
       mode="F"
       chamfer_steps="1"
       flexible="false"
       use_knot_distance="true"
       apply_no_radius="true"
       apply_with_radius="true"
       only_selected="false"
       hide_knots="false" /><inkscape:path-effect
       effect="fillet_chamfer"
       id="path-effect4"
       is_visible="true"
       lpeversion="1"
       nodesatellites_param="F,0,0,1,0,0,0,1 @ F,0,0,1,0,0,0,1 @ F,0,0,1,0,0,0,1 @ F,0,0,1,0,0,0,1 @ F,0,0,1,0,0,0,1 @ F,0,0,1,0,0,0,1 @ F,0,0,1,0,0,0,1 @ F,0,0,1,0,0,0,1 @ F,0,0,1,0,0,0,1 @ F,0,0,1,0,10,0,1 @ F,0,0,1,0,0,0,1 @ F,0,0,1,0,0,0,1 @ F,0,0,1,0,0,0,1 @ F,0,0,1,0,0,0,1 @ F,0,0,1,0,0,0,1 @ F,0,0,1,0,0,0,1 @ F,0,0,1,0,0,0,1 @ F,0,0,1,0,10,0,1 @ F,0,0,1,0,0,0,1 @ F,0,0,1,0,0,0,1 @ F,0,0,1,0,0,0,1 @ F,0,0,1,0,0,0,1 @ F,0,0,1,0,0,0,1 @ F,0,0,1,0,0,0,1 @ F,0,0,1,0,0,0,1 @ F,0,0,1,0,0,0,1 @ F,0,0,1,0,0,0,1 @ F,0,0,1,0,0,0,1 @ F,0,0,1,0,0,0,1 @ F,0,0,1,0,10,0,1 @ F,0,0,1,0,0,0,1 @ F,0,0,1,0,0,0,1 @ F,0,0,1,0,0,0,1 @ F,0,0,1,0,0,0,1 @ F,0,0,1,0,0,0,1 @ F,0,0,1,0,0,0,1 @ F,0,0,1,0,0,0,1 @ F,0,0,1,0,10,0,1 @ F,0,0,1,0,0,0,1 @ F,0,0,1,0,0,0,1 @ F,0,0,1,0,0,0,1 @ F,0,0,1,0,0,0,1 @ F,0,0,1,0,0,0,1 @ F,0,0,1,0,0,0,1 @ F,0,0,1,0,0,0,1 @ F,0,0,1,0,10,0,1 @ F,0,0,1,0,0,0,1 @ F,0,0,1,0,0,0,1 @ F,0,0,1,0,0,0,1 @ F,0,0,1,0,0,0,1 @ F,0,0,1,0,0,0,1 @ F,0,0,1,0,0,0,1 @ F,0,0,1,0,0,0,1 @ F,0,0,1,0,10,0,1 @ F,0,0,1,0,0,0,1 @ F,0,0,1,0,0,0,1 @ F,0,0,1,0,0,0,1 @ F,0,0,1,0,0,0,1 @ F,0,0,1,0,0,0,1 @ F,0,0,1,0,0,0,1 @ F,0,0,1,0,0,0,1 @ F,0,0,1,0,0,0,1 @ F,0,0,1,0,10,0,1 @ F,0,0,1,0,0,0,1 @ F,0,0,1,0,10,0,1 @ F,0,0,1,0,0,0,1 @ F,0,0,1,0,0,0,1 @ F,0,0,1,0,0,0,1 @ F,0,0,1,0,0,0,1 @ F,0,0,1,0,0,0,1 @ F,0,0,1,0,10,0,1 @ F,0,0,1,0,0,0,1 @ F,0,0,1,0,0,0,1 @ F,0,0,1,0,0,0,1 @ F,0,0,1,0,0,0,1 @ F,0,0,1,0,0,0,1 @ F,0,0,1,0,0,0,1 @ F,0,0,1,0,10,0,1 @ F,0,0,1,0,0,0,1 @ F,0,0,1,0,0,0,1 | F,0,0,1,0,0,0,1 @ F,0,0,1,0,0,0,1 @ F,0,0,1,0,0,0,1 @ F,0,0,1,0,0,0,1 | F,0,0,1,0,0,0,1 @ F,0,0,1,0,0,0,1 @ F,0,0,1,0,0,0,1 @ F,0,0,1,0,0,0,1 | F,0,0,1,0,0,0,1 @ F,0,0,1,0,0,0,1"
       radius="0"
       unit="px"
       method="auto"
       mode="F"
       chamfer_steps="1"
       flexible="false"
       use_knot_distance="true"
       apply_no_radius="true"
       apply_with_radius="true"
       only_selected="false"
       hide_knots="false" /><inkscape:path-effect
       effect="mirror_symmetry"
       start_point="1227.9639,166.32106"
       end_point="1227.9639,1036.3211"
       center_point="1227.9639,601.32108"
       id="path-effect3"
       is_visible="true"
       lpeversion="1.2"
       lpesatellites=""
       mode="free"
       discard_orig_path="false"
       fuse_paths="false"
       oposite_fuse="false"
       split_items="false"
       split_open="false"
       link_styles="false" /><inkscape:path-effect
       effect="mirror_symmetry"
       start_point="1224.9637,539.32105"
       end_point="1224.9637,834.69591"
       center_point="1224.9637,687.00848"
       id="path-effect2"
       is_visible="true"
       lpeversion="1.2"
       lpesatellites=""
       mode="free"
       discard_orig_path="false"
       fuse_paths="false"
       oposite_fuse="false"
       split_items="false"
       split_open="false"
       link_styles="false" /><inkscape:path-effect
       effect="fillet_chamfer"
       id="path-effect1"
       is_visible="true"
       lpeversion="1"
       nodesatellites_param="F,0,0,1,0,0,0,1 @ F,0,0,1,0,0,0,1 @ F,0,0,1,0,0,0,1 @ F,0,0,1,0,0,0,1 @ F,0,0,1,0,0,0,1 @ F,0,0,1,0,0,0,1 @ F,0,0,1,0,0,0,1 @ F,0,0,1,0,0,0,1 @ F,0,0,1,0,0,0,1 @ F,0,0,1,0,0,0,1 @ F,0,0,1,0,2,0,1 @ F,0,0,1,0,0,0,1 @ F,0,0,1,0,0,0,1 @ F,0,0,1,0,0,0,1 @ F,0,0,1,0,0,0,1 @ F,0,0,1,0,0,0,1 @ F,0,0,1,0,2,0,1 @ F,0,0,1,0,2,0,1 @ F,0,0,1,0,0,0,1 @ F,0,0,1,0,0,0,1 @ F,0,0,1,0,0,0,1 @ F,0,0,1,0,0,0,1 @ F,0,0,1,0,0,0,1 @ F,0,0,1,0,2,0,1 @ F,0,0,1,0,2,0,1 @ F,0,0,1,0,0,0,1 @ F,0,0,1,0,0,0,1 @ F,0,0,1,0,0,0,1 @ F,0,0,1,0,0,0,1 @ F,0,0,1,0,0,0,1 @ F,0,0,1,0,0,0,1 @ F,0,0,1,0,2,0,1 @ F,0,0,1,0,2,0,1 @ F,0,0,1,0,0,0,1 @ F,0,0,1,0,0,0,1 @ F,0,0,1,0,0,0,1 @ F,0,0,1,0,0,0,1"
       radius="0"
       unit="px"
       method="auto"
       mode="F"
       chamfer_steps="1"
       flexible="false"
       use_knot_distance="true"
       apply_no_radius="true"
       apply_with_radius="true"
       only_selected="false"
       hide_knots="false" /><inkscape:path-effect
       effect="fillet_chamfer"
       id="path-effect23"
       is_visible="true"
       lpeversion="1"
       nodesatellites_param="F,0,0,1,0,0,0,1 @ F,0,0,1,0,0,0,1 @ F,0,0,1,0,0,0,1 @ F,0,0,1,0,0,0,1 @ F,0,0,1,0,0,0,1 @ F,0,0,1,0,0,0,1 @ F,0,0,1,0,0,0,1 @ F,0,0,1,0,0,0,1 @ F,0,0,1,0,0,0,1 @ F,0,0,1,0,0,0,1 @ F,0,0,1,0,0,0,1 @ F,0,0,1,0,0,0,1 @ F,0,0,1,0,0,0,1 @ F,0,0,1,0,0,0,1 @ F,0,0,1,0,0,0,1 @ F,0,0,1,0,0,0,1 @ F,0,0,1,0,0,0,1 @ F,0,0,1,0,0,0,1 @ F,0,0,1,0,0,0,1 @ F,0,0,1,0,0,0,1 @ F,0,0,1,0,0,0,1 @ F,0,0,1,0,0,0,1 @ F,0,0,1,0,0,0,1 @ F,0,0,1,0,0,0,1 @ F,0,0,1,0,0,0,1 @ F,0,0,1,0,0,0,1 @ F,0,0,1,0,0,0,1 @ F,0,0,1,0,0,0,1 @ F,0,0,1,0,0,0,1"
       radius="0"
       unit="px"
       method="auto"
       mode="F"
       chamfer_steps="1"
       flexible="false"
       use_knot_distance="true"
       apply_no_radius="true"
       apply_with_radius="true"
       only_selected="false"
       hide_knots="false" /><clipPath
       clipPathUnits="userSpaceOnUse"
       id="clipPath15"><rect
         style="fill:#000000"
         id="rect15"
         width="405"
         height="870"
         x="1224.9639"
         y="230.32106"
         ry="0.078125"
         rx="0" /></clipPath><clipPath
       clipPathUnits="userSpaceOnUse"
       id="clipPath16"><rect
         style="fill:#000000"
         id="rect16"
         width="405"
         height="870"
         x="1224.9639"
         y="230.32106"
         ry="0.078125"
         rx="0" /></clipPath><clipPath
       clipPathUnits="userSpaceOnUse"
       id="clipPath17"><rect
         style="fill:#000000"
         id="rect17"
         width="405"
         height="870"
         x="1224.9639"
         y="230.32106"
         ry="0.078125"
         rx="0" /></clipPath><clipPath
       clipPathUnits="userSpaceOnUse"
       id="clipPath18"><rect
         style="fill:#000000"
         id="rect18"
         width="405"
         height="870"
         x="1224.9639"
         y="230.32106"
         ry="0.078125"
         rx="0" /></clipPath><clipPath
       clipPathUnits="userSpaceOnUse"
       id="clipPath19"><rect
         style="fill:#000000"
         id="rect19"
         width="405"
         height="870"
         x="1224.9639"
         y="230.32106"
         ry="0.078125"
         rx="0" /></clipPath><clipPath
       clipPathUnits="userSpaceOnUse"
       id="clipPath20"><rect
         style="fill:#000000"
         id="rect20"
         width="405"
         height="870"
         x="1224.9639"
         y="230.32106"
         ry="0.078125"
         rx="0" /></clipPath><clipPath
       clipPathUnits="userSpaceOnUse"
       id="clipPath21"><rect
         style="fill:#000000"
         id="rect21"
         width="405"
         height="870"
         x="1224.9639"
         y="230.32106"
         ry="0.078125"
         rx="0" /></clipPath><clipPath
       clipPathUnits="userSpaceOnUse"
       id="clipPath22"><rect
         style="fill:#000000"
         id="rect22"
         width="405"
         height="870"
         x="1224.9639"
         y="230.32106"
         ry="0.078125"
         rx="0" /></clipPath><clipPath
       clipPathUnits="userSpaceOnUse"
       id="clipPath23"><path
         id="rect23"
         d="m 1225.042,230.32106 h 404.8437 c 0.043,0 0.078,0.0348 0.078,0.0781 v 869.84374 c 0,0.043 -0.035,0.078 -0.078,0.078 H 1225.042 c -0.043,0 -0.078,-0.035 -0.078,-0.078 V 230.39919 c 0,-0.0433 0.035,-0.0781 0.078,-0.0781 z m -0.1566,0 -404.8437,0 c -0.043,0 -0.078,0.0348 -0.078,0.0781 l 0,869.84374 c 0,0.043 0.035,0.078 0.078,0.078 l 404.8437,0 c 0.043,0 0.078,-0.035 0.078,-0.078 l 0,-869.84371 c 0,-0.0433 -0.035,-0.0781 -0.078,-0.0781 z"
         style="fill:#000000" /></clipPath><clipPath
       clipPathUnits="userSpaceOnUse"
       id="clipPath22-9"><path
         id="rect22-0"
         d="m 1225.042,230.32106 h 404.8437 c 0.043,0 0.078,0.0348 0.078,0.0781 v 869.84374 c 0,0.043 -0.035,0.078 -0.078,0.078 H 1225.042 c -0.043,0 -0.078,-0.035 -0.078,-0.078 V 230.39919 c 0,-0.0433 0.035,-0.0781 0.078,-0.0781 z"
         style="fill:#000000" /></clipPath><inkscape:path-effect
       effect="mirror_symmetry"
       start_point="1227.9639,166.32106"
       end_point="1227.9639,1036.3211"
       center_point="1227.9639,601.32108"
       id="path-effect3-5"
       is_visible="true"
       lpeversion="1.2"
       lpesatellites=""
       mode="free"
       discard_orig_path="false"
       fuse_paths="false"
       oposite_fuse="false"
       split_items="false"
       split_open="false"
       link_styles="false" /><clipPath
       clipPathUnits="userSpaceOnUse"
       id="clipPath21-7"><rect
         style="fill:#000000"
         id="rect21-3"
         width="405"
         height="870"
         x="1224.9639"
         y="230.32106"
         ry="0.078125"
         rx="0" /></clipPath><inkscape:path-effect
       effect="fillet_chamfer"
       id="path-effect51-1"
       is_visible="true"
       lpeversion="1"
       nodesatellites_param="F,0,0,1,0,2,0,1 @ F,0,0,1,0,2,0,1 @ F,0,0,1,0,2,0,1 @ F,0,0,1,0,2,0,1 @ F,0,0,1,0,2,0,1 @ F,0,0,1,0,2,0,1 | F,0,0,1,0,2,0,1 @ F,0,0,1,0,2,0,1 @ F,0,0,1,0,2,0,1 @ F,0,0,1,0,2,0,1 @ F,0,0,1,0,2,0,1 @ F,0,0,1,0,2,0,1"
       radius="0"
       unit="px"
       method="auto"
       mode="F"
       chamfer_steps="1"
       flexible="false"
       use_knot_distance="true"
       apply_no_radius="true"
       apply_with_radius="true"
       only_selected="false"
       hide_knots="false" /><inkscape:path-effect
       effect="fillet_chamfer"
       id="path-effect51-17"
       is_visible="true"
       lpeversion="1"
       nodesatellites_param="F,0,0,1,0,2,0,1 @ F,0,0,1,0,2,0,1 @ F,0,0,1,0,2,0,1 @ F,0,0,1,0,2,0,1 @ F,0,0,1,0,2,0,1 @ F,0,0,1,0,2,0,1 | F,0,0,1,0,2,0,1 @ F,0,0,1,0,2,0,1 @ F,0,0,1,0,2,0,1 @ F,0,0,1,0,2,0,1 @ F,0,0,1,0,2,0,1 @ F,0,0,1,0,2,0,1"
       radius="0"
       unit="px"
       method="auto"
       mode="F"
       chamfer_steps="1"
       flexible="false"
       use_knot_distance="true"
       apply_no_radius="true"
       apply_with_radius="true"
       only_selected="false"
       hide_knots="false" /><rect
       x="25.455845"
       y="242.53761"
       width="539.52246"
       height="153.44217"
       id="rect84-0" /><rect
       x="25.455845"
       y="242.53761"
       width="539.52246"
       height="153.44217"
       id="rect84-0-9" /><inkscape:path-effect
       effect="fillet_chamfer"
       id="path-effect20-7"
       is_visible="true"
       lpeversion="1"
       nodesatellites_param="F,0,0,1,0,2,0,1 @ F,0,0,1,0,2,0,1 @ F,0,0,1,0,2,0,1 @ F,0,0,1,0,2,0,1 @ F,0,0,1,0,2,0,1 @ F,0,0,1,0,2,0,1 @ F,0,0,1,0,2,0,1 @ F,0,0,1,0,2,0,1 @ F,0,0,1,0,2,0,1 @ F,0,0,1,0,2,0,1 @ F,0,0,1,0,2,0,1 @ F,0,0,1,0,2,0,1 @ F,0,0,1,0,2,0,1"
       radius="0"
       unit="px"
       method="auto"
       mode="F"
       chamfer_steps="1"
       flexible="false"
       use_knot_distance="true"
       apply_no_radius="true"
       apply_with_radius="true"
       only_selected="false"
       hide_knots="false" /></defs><g
     inkscape:groupmode="layer"
     id="layer6"
     inkscape:label="web"><path
       d="m 262.1582,351.18164 v 34.33319 c 33.9953,0 46.95758,2.32342 67.88875,9.15602 1.05004,0.34277 2.26737,-0.1918 2.68097,-1.21595 4.32363,-10.70597 3.82941,-19.04383 4.33848,-31.49257 0.0451,-1.10347 -0.76357,-2.27016 -1.81904,-2.5958 -21.49837,-6.63268 -38.29606,-8.18489 -73.08916,-8.18489 z m 132.92941,33.12043 c -1.52418,21.21228 -4.09249,26.71558 -9.63595,37.20232 -0.51613,0.97638 -0.1459,2.18905 0.83189,2.70286 3.19818,1.68055 5.32739,2.73886 8.78314,4.6907 0.96054,0.54252 2.41076,0.40407 3.23492,-0.33134 9.02447,-8.05256 17.62734,-17.60759 22.51101,-28.54004 0.45049,-1.00844 0.006,-2.28789 -0.94713,-2.84696 -10.4477,-6.13142 -14.23205,-9.29063 -22.87365,-13.93764 -0.97243,-0.52293 -1.82506,-0.0416 -1.90423,1.0601 z M 262.1582,351.18164 v 34.33319 c -33.9953,0 -46.95758,2.32342 -67.88875,9.15602 -1.05004,0.34277 -2.26737,-0.1918 -2.68097,-1.21595 -4.32363,-10.70597 -3.82941,-19.04383 -4.33848,-31.49257 -0.0451,-1.10347 0.76357,-2.27016 1.81904,-2.5958 21.49837,-6.63268 38.29606,-8.18489 73.08916,-8.18489 z m -132.92941,33.12043 c 1.52418,21.21228 4.09249,26.71558 9.63595,37.20232 0.51613,0.97638 0.1459,2.18905 -0.83189,2.70286 -3.19818,1.68055 -5.32739,2.73886 -8.78314,4.6907 -0.96054,0.54252 -2.41076,0.40407 -3.23492,-0.33134 -9.02447,-8.05256 -17.62734,-17.60759 -22.51101,-28.54004 -0.45049,-1.00844 -0.006,-2.28789 0.94713,-2.84696 10.4477,-6.13142 14.23205,-9.29063 22.87365,-13.93764 0.97243,-0.52293 1.82506,-0.0416 1.90423,1.0601 z M 262.1582,178.81836 v -34.33319 c 33.9953,0 46.95758,-2.32342 67.88875,-9.15602 1.05004,-0.34277 2.26737,0.1918 2.68097,1.21595 4.32363,10.70597 3.82941,19.04383 4.33848,31.49257 0.0451,1.10347 -0.76357,2.27016 -1.81904,2.5958 -21.49837,6.63268 -38.29606,8.18489 -73.08916,8.18489 z m 132.92941,-33.12043 c -1.52418,-21.21228 -4.09249,-26.71558 -9.63595,-37.20232 -0.51613,-0.97638 -0.1459,-2.18905 0.83189,-2.70286 3.19818,-1.68055 5.32739,-2.73886 8.78314,-4.6907 0.96054,-0.54252 2.41076,-0.40407 3.23492,0.33134 9.02447,8.05256 17.62734,17.60759 22.51101,28.54004 0.45049,1.00844 0.006,2.28789 -0.94713,2.84696 -10.4477,6.13142 -14.23205,9.29063 -22.87365,13.93764 -0.97243,0.52293 -1.82506,0.0416 -1.90423,-1.0601 z M 262.1582,178.81836 v -34.33319 c -33.9953,0 -46.95758,-2.32342 -67.88875,-9.15602 -1.05004,-0.34277 -2.26737,0.1918 -2.68097,1.21595 -4.32363,10.70597 -3.82941,19.04383 -4.33848,31.49257 -0.0451,1.10347 0.76357,2.27016 1.81904,2.5958 21.49837,6.63268 38.29606,8.18489 73.08916,8.18489 z M 129.22879,145.69793 c 1.52418,-21.21228 4.09249,-26.71558 9.63595,-37.20232 0.51613,-0.97638 0.1459,-2.18905 -0.83189,-2.70286 -3.19818,-1.68055 -5.32739,-2.73886 -8.78314,-4.6907 -0.96054,-0.54252 -2.41076,-0.40407 -3.23492,0.33134 -9.02447,8.05256 -17.62734,17.60759 -22.51101,28.54004 -0.45049,1.00844 -0.006,2.28789 0.94713,2.84696 10.4477,6.13142 14.23205,9.29063 22.87365,13.93764 0.97243,0.52293 1.82506,0.0416 1.90423,-1.0601 z"
       id="path87"
       sodipodi:nodetypes="cccccccccc"
       inkscape:path-effect="#path-effect16;#path-effect87;#path-effect7"
       inkscape:original-d="m 262.1582,351.18164 0,34.33319 c 35.01183,0 47.71397,2.46445 69.78856,9.7811 5.42078,-12.19452 4.50964,-21.02493 5.20906,-35.33128 -22.43491,-7.13821 -39.18185,-8.78301 -74.99762,-8.78301 z m 133.06667,31.12515 c -1.5867,24.08778 -4.33353,28.92543 -10.70898,40.96484 4.84024,2.58148 7.05717,3.59881 12.28515,6.61719 10.06717,-8.76168 19.83903,-19.38655 24.79297,-31.70313 -12.52096,-7.22897 -15.93144,-10.43945 -26.36914,-15.8789 z"
       inkscape:label="horizontal" /><path
       d="m 349.3426,357.03788 c -0.27382,40.39005 -3.59186,40.52187 -6.20588,48.89376 -17.38057,55.66467 -75.86611,52.03459 -80.97884,53.40454 30.76444,-1.37687 62.07591,-4.19409 93.94906,-14.741 1.04862,-0.347 2.49738,-1.29982 3.22949,-2.12691 9.23882,-10.43748 15.63599,-20.16749 21.70156,-41.11247 3.54656,-12.24659 4.22664,-6.24985 5.91156,-44.32031 0.0488,-1.10302 -0.80787,-1.99723 -1.91244,-1.99724 l -33.68359,-3.2e-4 c -1.10457,-1e-5 -2.00343,0.8954 -2.01092,1.99995 z m -87.1844,148.03048 v 0.0293 c 0.0308,-0.01 0.0629,-0.0198 0.0937,-0.0293 -0.0296,-10e-6 -0.0642,0 -0.0937,0 z M 174.9738,357.03788 c 0.27382,40.39005 3.59186,40.52187 6.20588,48.89376 17.38057,55.66467 75.86611,52.03459 80.97884,53.40454 -30.76444,-1.37687 -62.07591,-4.19409 -93.94906,-14.741 -1.04862,-0.347 -2.49738,-1.29982 -3.22949,-2.12691 -9.23882,-10.43748 -15.63599,-20.16749 -21.70156,-41.11247 -3.54656,-12.24659 -4.22664,-6.24985 -5.91156,-44.32031 -0.0488,-1.10302 0.80787,-1.99723 1.91244,-1.99724 l 33.68359,-3.2e-4 c 1.10457,-1e-5 2.00343,0.8954 2.01092,1.99995 z m 87.1844,148.03048 v 0.0293 c -0.0308,-0.01 -0.0629,-0.0198 -0.0937,-0.0293 0.0296,-10e-6 0.0642,0 0.0937,0 z m 87.1844,-332.10624 c -0.27382,-40.39005 -3.59186,-40.52187 -6.20588,-48.89376 -17.38057,-55.66467 -75.86611,-52.03459 -80.97884,-53.40454 30.76444,1.376868 62.07591,4.194089 93.94906,14.741004 1.04862,0.346991 2.49738,1.299817 3.22949,2.126909 9.23882,10.437474 15.63599,20.167487 21.70156,41.112467 3.54656,12.24659 4.22664,6.24985 5.91156,44.32031 0.0488,1.10302 -0.80787,1.99723 -1.91244,1.99724 l -33.68359,3.2e-4 c -1.10457,10e-6 -2.00343,-0.8954 -2.01092,-1.99995 z M 262.1582,24.93164 v -0.0293 c 0.0308,0.01 0.0629,0.0198 0.0937,0.0293 -0.0296,10e-6 -0.0642,0 -0.0937,0 z m -87.1844,148.03048 c 0.27382,-40.39005 3.59186,-40.52187 6.20588,-48.89376 17.38057,-55.66467 75.86611,-52.03459 80.97884,-53.40454 -30.76444,1.376868 -62.07591,4.194089 -93.94906,14.741004 -1.04862,0.346991 -2.49738,1.299817 -3.22949,2.126909 -9.23882,10.437474 -15.63599,20.167487 -21.70156,41.112467 -3.54656,12.24659 -4.22664,6.24985 -5.91156,44.32031 -0.0488,1.10302 0.80787,1.99723 1.91244,1.99724 l 33.68359,3.2e-4 c 1.10457,10e-6 2.00343,-0.8954 2.01092,-1.99995 z M 262.1582,24.93164 v -0.0293 c -0.0308,0.01 -0.0629,0.0198 -0.0937,0.0293 0.0296,10e-6 0.0642,0 0.0937,0 z"
       id="path8"
       inkscape:path-effect="#path-effect17;#path-effect10;#path-effect15"
       inkscape:original-d="m 349.35352,355.03791 c -0.17678,42.38791 -3.56033,42.38587 -6.2168,50.89373 -17.38057,55.66467 -75.86611,52.03459 -80.97884,53.40454 31.37425,-1.40416 63.31742,-4.30634 95.84507,-15.37734 9.96497,-11.03065 16.6819,-20.66505 23.03504,-42.60304 3.60736,-12.45655 4.24912,-6.03887 5.99912,-46.31753 z M 262.1582,505.06836 v 0.0293 c 0.0308,-0.01 0.0629,-0.0198 0.0937,-0.0293 -0.0296,-10e-6 -0.0642,0 -0.0937,0 z"
       sodipodi:nodetypes="csccscccccc"
       inkscape:label="vertical" /><path
       d="m 262.1582,505.06836 c 51.53019,0 136.01048,-5.46365 182.7159,-48.74685 23.39821,-21.68375 47.1692,-44.43768 54.19705,-99.29839 0.14035,-1.09559 -0.65017,-1.98488 -1.75474,-1.9844 -11.03713,0.005 -25.22828,0.0464 -39.41213,0.0501 -1.10456,2.9e-4 -2.13855,0.88494 -2.32225,1.97412 -7.18698,42.61262 -24.22047,53.80641 -43.14961,71.41525 -32.91904,30.62297 -112.60629,40.56482 -150.27422,40.56482 z m 0,0 c -51.53019,0 -136.01048,-5.46365 -182.7159,-48.74685 -23.39821,-21.68375 -47.169198,-44.43768 -54.197053,-99.29839 -0.140348,-1.09559 0.650174,-1.98488 1.754743,-1.9844 11.037135,0.005 25.228283,0.0464 39.41213,0.0501 1.104559,2.9e-4 2.138546,0.88494 2.322246,1.97412 7.186986,42.61262 24.220473,53.80641 43.149614,71.41525 32.91904,30.62297 112.60629,40.56482 150.27422,40.56482 z m 0,-480.13672 c 51.53019,0 136.01048,5.46365 182.7159,48.74685 23.39821,21.683752 47.1692,44.43768 54.19705,99.29839 0.14035,1.09559 -0.65017,1.98488 -1.75474,1.9844 -11.03713,-0.005 -25.22828,-0.0464 -39.41213,-0.0501 -1.10456,-2.9e-4 -2.13855,-0.88494 -2.32225,-1.97412 -7.18698,-42.61262 -24.22047,-53.80641 -43.14961,-71.41525 C 379.51338,70.89886 299.82613,60.95701 262.1582,60.95701 Z m 0,0 c -51.53019,0 -136.01048,5.46365 -182.7159,48.74685 -23.39821,21.683752 -47.169198,44.43768 -54.197053,99.29839 -0.140348,1.09559 0.650174,1.98488 1.754743,1.9844 11.037135,-0.005 25.228283,-0.0464 39.41213,-0.0501 1.104559,-2.9e-4 2.138546,-0.88494 2.322246,-1.97412 7.186986,-42.61262 24.220473,-53.80641 43.149614,-71.41525 C 144.80302,70.89886 224.49027,60.95701 262.1582,60.95701 Z"
       id="path7"
       sodipodi:nodetypes="csccscc"
       inkscape:path-effect="#path-effect18;#path-effect8;#path-effect9"
       inkscape:original-d="m 262.1582,505.06836 c 51.53019,0 136.01048,-5.46365 182.7159,-48.74685 23.67842,-21.94343 47.7386,-44.98282 54.44231,-101.28324 -11.7915,0 -27.6976,0.0508 -43.41211,0.0508 -6.98958,44.24617 -24.25374,55.51142 -43.47188,73.3891 -32.91904,30.62297 -112.60629,40.56482 -150.27422,40.56482 z"
       inkscape:label="world" /><path
       style="-inkscape-font-specification:'hel Bold';stroke-width:50"
       d="m 105.86833,258.14775 -13.416067,49.81679 a 2.609874,2.609874 142.53631 0 1 -2.520086,1.93119 H 78.61072 a 2.6248991,2.6248991 37.30501 0 1 -2.530775,-1.92828 l -8.56393,-31.11241 a 0.54329243,0.54329243 179.80747 0 0 -1.048579,0.004 l -8.337519,31.10535 a 2.6066826,2.6066826 142.50246 0 1 -2.517804,1.93181 H 44.290656 a 2.6098741,2.6098741 37.463685 0 1 -2.520087,-1.93119 L 28.354497,258.14775 a 1.532641,1.532641 127.46368 0 1 1.479913,-1.93119 h 10.456246 a 2.4961355,2.4961355 38.703052 0 1 2.436079,1.95188 l 7.383403,33.04799 a 0.49050876,0.49050876 1.1861541 0 0 0.952577,0.0197 l 8.844838,-33.08743 a 2.6048597,2.6048597 142.4831 0 1 2.516498,-1.93216 h 9.807336 a 2.5730886,2.5730886 37.857065 0 1 2.49352,1.93815 l 8.422138,33.07545 a 0.48873211,0.48873211 179.44616 0 0 0.949481,-0.009 l 7.740195,-33.05709 a 2.5223857,2.5223857 141.5891 0 1 2.455961,-1.94733 h 10.095738 a 1.532641,1.532641 52.536314 0 1 1.47991,1.93119 z"
       id="text84"
       inkscape:label="w_center"
       transform="matrix(2.1670985,0,0,2.1670985,116.72115,-348.35955)"
       aria-label="W"
       inkscape:path-effect="#path-effect19"
       inkscape:original-d="M 106.38842,256.21656 91.932177,309.89573 H 76.61072 l -9.62548,-34.96897 -9.373127,34.96897 H 42.290656 L 27.83441,256.21656 h 14.456246 l 8.255561,36.95175 9.877834,-36.95175 h 13.807336 l 9.409178,36.95175 8.652117,-36.95175 z" /><path
       style="-inkscape-font-specification:'hel Bold';stroke-width:50"
       d="m 98.014457,256.82028 -12.013218,44.60769 a 2.6098741,2.6098741 142.53631 0 1 -2.520087,1.93119 l -9.834643,0 a 2.6248992,2.6248992 37.305009 0 1 -2.530775,-1.92828 l -7.629861,-27.71897 a 0.54329251,0.54329251 179.80747 0 0 -1.048579,0.004 l -7.427938,27.71191 a 2.6066826,2.6066826 142.50246 0 1 -2.517804,1.93181 h -9.834643 a 2.6098741,2.6098741 37.463685 0 1 -2.520087,-1.93119 L 28.123604,256.82028 a 1.532641,1.532641 127.46369 0 1 1.479913,-1.93119 h 9.053392 a 2.4961356,2.4961356 38.703051 0 1 2.436079,1.95188 l 6.582273,29.46214 a 0.49050883,0.49050883 1.1861538 0 0 0.952578,0.0197 l 7.886278,-29.50158 a 2.6048598,2.6048598 142.4831 0 1 2.516499,-1.93216 h 8.467454 a 2.5730887,2.5730887 37.857065 0 1 2.49352,1.93815 l 7.509059,29.4896 a 0.48873216,0.48873216 179.44616 0 0 0.949481,-0.009 l 6.900582,-29.47124 a 2.5223857,2.5223857 141.5891 0 1 2.455961,-1.94733 h 8.727871 a 1.532641,1.532641 52.536315 0 1 1.479913,1.93119 z"
       id="text84-6"
       inkscape:label="w_left"
       transform="matrix(2.1670985,0,0,2.1670985,-34.819536,-339.83848)"
       aria-label="W"
       inkscape:path-effect="#path-effect20"
       inkscape:original-d="M 98.534544,254.88909 85.481152,303.35916 H 71.646509 l -8.691411,-31.57553 -8.463546,31.57553 H 40.656909 L 27.603517,254.88909 h 13.053392 l 7.454431,33.3659 8.919276,-33.3659 H 69.49807 l 8.496099,33.3659 7.812504,-33.3659 z" /><path
       style="-inkscape-font-specification:'hel Bold';stroke-width:50"
       d="m 98.014457,256.82028 -12.013218,44.60769 a 2.6098741,2.6098741 142.53631 0 1 -2.520087,1.93119 l -9.834643,0 a 2.6248992,2.6248992 37.305009 0 1 -2.530775,-1.92828 l -7.629861,-27.71897 a 0.54329251,0.54329251 179.80747 0 0 -1.048579,0.004 l -7.427938,27.71191 a 2.6066826,2.6066826 142.50246 0 1 -2.517804,1.93181 h -9.834643 a 2.6098741,2.6098741 37.463685 0 1 -2.520087,-1.93119 L 28.123604,256.82028 a 1.532641,1.532641 127.46369 0 1 1.479913,-1.93119 h 9.053392 a 2.4961356,2.4961356 38.703051 0 1 2.436079,1.95188 l 6.582273,29.46214 a 0.49050883,0.49050883 1.1861538 0 0 0.952578,0.0197 l 7.886278,-29.50158 a 2.6048598,2.6048598 142.4831 0 1 2.516499,-1.93216 h 8.467454 a 2.5730887,2.5730887 37.857065 0 1 2.49352,1.93815 l 7.509059,29.4896 a 0.48873216,0.48873216 179.44616 0 0 0.949481,-0.009 l 6.900582,-29.47124 a 2.5223857,2.5223857 141.5891 0 1 2.455961,-1.94733 h 8.727871 a 1.532641,1.532641 52.536315 0 1 1.479913,1.93119 z"
       id="text84-6-4"
       inkscape:label="w_left"
       transform="matrix(2.1670985,0,0,2.1670985,285.35205,-339.84065)"
       aria-label="W"
       inkscape:path-effect="#path-effect20-7"
       inkscape:original-d="M 98.534544,254.88909 85.481152,303.35916 H 71.646509 l -8.691411,-31.57553 -8.463546,31.57553 H 40.656909 L 27.603517,254.88909 h 13.053392 l 7.454431,33.3659 8.919276,-33.3659 H 69.49807 l 8.496099,33.3659 7.812504,-33.3659 z" /></g></svg>
