<?xml version="1.0" encoding="UTF-8" standalone="no"?>
<!-- Created with Inkscape (http://www.inkscape.org/) -->

<svg
   width="522.71503"
   height="530.10199"
   viewBox="0 0 522.71502 530.10199"
   version="1.1"
   id="svg5"
   xmlns="http://www.w3.org/2000/svg"
   xmlns:svg="http://www.w3.org/2000/svg">
  <defs
     id="defs2">
    <clipPath
       clipPathUnits="userSpaceOnUse"
       id="clipPath15">
      <rect
         style="fill:#000000"
         id="rect15"
         width="405"
         height="870"
         x="1224.9639"
         y="230.32106"
         ry="0.078125"
         rx="0" />
    </clipPath>
    <clipPath
       clipPathUnits="userSpaceOnUse"
       id="clipPath16">
      <rect
         style="fill:#000000"
         id="rect16"
         width="405"
         height="870"
         x="1224.9639"
         y="230.32106"
         ry="0.078125"
         rx="0" />
    </clipPath>
    <clipPath
       clipPathUnits="userSpaceOnUse"
       id="clipPath17">
      <rect
         style="fill:#000000"
         id="rect17"
         width="405"
         height="870"
         x="1224.9639"
         y="230.32106"
         ry="0.078125"
         rx="0" />
    </clipPath>
    <clipPath
       clipPathUnits="userSpaceOnUse"
       id="clipPath18">
      <rect
         style="fill:#000000"
         id="rect18"
         width="405"
         height="870"
         x="1224.9639"
         y="230.32106"
         ry="0.078125"
         rx="0" />
    </clipPath>
    <clipPath
       clipPathUnits="userSpaceOnUse"
       id="clipPath19">
      <rect
         style="fill:#000000"
         id="rect19"
         width="405"
         height="870"
         x="1224.9639"
         y="230.32106"
         ry="0.078125"
         rx="0" />
    </clipPath>
    <clipPath
       clipPathUnits="userSpaceOnUse"
       id="clipPath20">
      <rect
         style="fill:#000000"
         id="rect20"
         width="405"
         height="870"
         x="1224.9639"
         y="230.32106"
         ry="0.078125"
         rx="0" />
    </clipPath>
    <clipPath
       clipPathUnits="userSpaceOnUse"
       id="clipPath21">
      <rect
         style="fill:#000000"
         id="rect21"
         width="405"
         height="870"
         x="1224.9639"
         y="230.32106"
         ry="0.078125"
         rx="0" />
    </clipPath>
    <clipPath
       clipPathUnits="userSpaceOnUse"
       id="clipPath22">
      <rect
         style="fill:#000000"
         id="rect22"
         width="405"
         height="870"
         x="1224.9639"
         y="230.32106"
         ry="0.078125"
         rx="0" />
    </clipPath>
    <clipPath
       clipPathUnits="userSpaceOnUse"
       id="clipPath23">
      <path
         id="rect23"
         d="m 1225.042,230.32106 h 404.8437 c 0.043,0 0.078,0.0348 0.078,0.0781 v 869.84374 c 0,0.043 -0.035,0.078 -0.078,0.078 H 1225.042 c -0.043,0 -0.078,-0.035 -0.078,-0.078 V 230.39919 c 0,-0.0433 0.035,-0.0781 0.078,-0.0781 z m -0.1566,0 -404.8437,0 c -0.043,0 -0.078,0.0348 -0.078,0.0781 l 0,869.84374 c 0,0.043 0.035,0.078 0.078,0.078 l 404.8437,0 c 0.043,0 0.078,-0.035 0.078,-0.078 l 0,-869.84371 c 0,-0.0433 -0.035,-0.0781 -0.078,-0.0781 z"
         style="fill:#000000" />
    </clipPath>
    <clipPath
       clipPathUnits="userSpaceOnUse"
       id="clipPath22-9">
      <path
         id="rect22-0"
         d="m 1225.042,230.32106 h 404.8437 c 0.043,0 0.078,0.0348 0.078,0.0781 v 869.84374 c 0,0.043 -0.035,0.078 -0.078,0.078 H 1225.042 c -0.043,0 -0.078,-0.035 -0.078,-0.078 V 230.39919 c 0,-0.0433 0.035,-0.0781 0.078,-0.0781 z"
         style="fill:#000000" />
    </clipPath>
    <clipPath
       clipPathUnits="userSpaceOnUse"
       id="clipPath21-7">
      <rect
         style="fill:#000000"
         id="rect21-3"
         width="405"
         height="870"
         x="1224.9639"
         y="230.32106"
         ry="0.078125"
         rx="0" />
    </clipPath>
  </defs>
  <g
     id="layer1"
     transform="translate(-963.60605,-356.03679)">
    <path
       id="path11"
       clip-path="url(#clipPath23)"
       d="m 1296.5312,381.04492 c -13.8018,-0.34854 -25.2736,10.55732 -25.623,24.35938 0,0 0.1334,8.5864 -0.01,19.38867 -0.1447,11.07077 -2.491,17.34955 -7.7578,24.53125 -7.3887,10.07501 -28.7589,12.57031 -38.1778,12.57031 0,14.0398 3e-4,49.67383 3e-4,49.67383 1.004,-10e-4 4.1846,0.0939 8.5899,0.44726 53.1429,5.5914 99.082,62.44946 99.082,137.38282 0,78.94675 -50.9857,137.87304 -107.6719,137.87304 v 50 c 44.2769,0 83.1769,-21.12978 111.2721,-54.61685 0.7099,-0.84619 2.0493,-1.08572 2.9753,-0.48363 10.9508,7.1205 15.3664,16.35515 17.8093,26.28994 3.2242,13.11211 2.291,24.29297 2.291,24.29297 -0.3653,14.12302 7.7094,26.28572 21.3906,28.15234 13.6804,1.86668 26.2838,-7.71024 28.1504,-21.39063 0,0 2.9779,-20.7059 -3.6797,-44.51757 -5.1126,-18.28603 -17.4807,-40.09573 -39.8681,-55.04161 -0.9187,-0.61329 -1.3042,-1.90834 -0.8581,-2.91881 7.9013,-17.89722 13.448,-37.40175 16.1991,-57.85313 0.1472,-1.09471 1.0822,-1.63255 2.0721,-1.14272 8.543,4.22739 13.9488,10.84351 18.6542,18.14377 6.7767,13.07741 10.2832,24.92578 10.2832,24.92578 4.1343,13.74609 15.1329,22.83165 28.754,20.57226 13.621,-2.2593 22.8315,-15.13289 20.5722,-28.7539 0,0 -3.4481,-21.90675 -17.582,-43.83399 -11.1998,-17.37527 -31.4621,-35.98891 -60.0991,-42.96995 -1.0731,-0.26161 -2.0421,-1.34434 -2.1694,-2.44154 -2.4147,-20.80517 -7.6984,-40.69533 -15.428,-58.97487 -0.4302,-1.01735 0.06,-1.54955 1.0952,-1.16478 9.6044,3.56926 14.6482,7.59605 17.9253,11.57003 7.4989,9.09352 12.555,17.06364 12.555,17.06364 8.2221,12.63594 13.6863,22.02895 27.244,19.41357 13.5566,-2.61509 22.4268,-15.72456 19.8125,-29.28125 0,0 -3.4737,-21.34111 -19.7968,-39.53232 -16.323,-18.19122 -42.1203,-34.35806 -85.7144,-34.61126 -1.1112,0.0174 -4.7019,0.20434 -7.1162,0.4197 -1.098,0.0979 -2.5944,-0.41571 -3.3606,-1.2113 -8.2611,-8.57794 -17.3159,-16.13788 -27.0248,-22.54279 -0.922,-0.60824 -1.0955,-1.7717 -0.3713,-2.6057 2.3629,-2.72107 6.5617,-7.48935 7.9091,-8.97837 7.3244,-8.09465 12.2696,-20.03895 12.2851,-39.50184 0.011,-13.95999 -0.2554,-27.0787 -0.2554,-27.0787 0.3485,-13.80203 -10.5574,-25.27362 -24.3594,-25.62305 z m -143.135,0 c 13.8018,-0.34854 25.2736,10.55732 25.623,24.35938 0,0 -0.1334,8.5864 0.01,19.38867 0.1447,11.07077 2.491,17.34955 7.7578,24.53125 7.3887,10.07501 28.7589,12.57031 38.1778,12.57031 0,14.0398 -3e-4,49.67383 -3e-4,49.67383 -1.004,-10e-4 -4.1846,0.0939 -8.5899,0.44726 -53.1429,5.5914 -99.082,62.44946 -99.082,137.38282 0,78.94675 50.9857,137.87304 107.6719,137.87304 l 0,50 c -44.2769,0 -83.1769,-21.12978 -111.2721,-54.61685 -0.7099,-0.84619 -2.0493,-1.08572 -2.9753,-0.48363 -10.9508,7.1205 -15.3664,16.35515 -17.8093,26.28994 -3.2242,13.11211 -2.291,24.29297 -2.291,24.29297 0.3653,14.12302 -7.7094,26.28572 -21.3906,28.15234 -13.6804,1.86668 -26.2838,-7.71024 -28.1504,-21.39063 0,0 -2.9779,-20.7059 3.6797,-44.51757 5.1126,-18.28603 17.4807,-40.09573 39.8681,-55.04161 0.9187,-0.61329 1.3042,-1.90834 0.8581,-2.91881 -7.9013,-17.89722 -13.448,-37.40175 -16.1991,-57.85313 -0.1472,-1.09471 -1.0822,-1.63255 -2.0721,-1.14272 -8.543,4.22739 -13.9488,10.84351 -18.6542,18.14377 -6.7767,13.07741 -10.2832,24.92578 -10.2832,24.92578 -4.1343,13.74609 -15.1329,22.83165 -28.754,20.57226 -13.621,-2.2593 -22.8315,-15.13289 -20.5722,-28.7539 0,0 3.4481,-21.90675 17.582,-43.83399 11.1998,-17.37527 31.4621,-35.98891 60.0991,-42.96995 1.0731,-0.26161 2.0421,-1.34434 2.1694,-2.44154 2.4147,-20.80517 7.6984,-40.69533 15.428,-58.97487 0.4302,-1.01735 -0.06,-1.54955 -1.0952,-1.16478 -9.6044,3.56926 -14.6482,7.59605 -17.9253,11.57003 -7.4989,9.09352 -12.555,17.06364 -12.555,17.06364 -8.2221,12.63594 -13.6863,22.02895 -27.244,19.41357 -13.5566,-2.61509 -22.4268,-15.72456 -19.8125,-29.28125 0,0 3.4737,-21.34111 19.7968,-39.53232 16.323,-18.19122 42.1203,-34.35806 85.7144,-34.61126 1.1112,0.0174 4.7019,0.20434 7.1162,0.4197 1.098,0.0979 2.5944,-0.41571 3.3606,-1.2113 8.2611,-8.57794 17.3159,-16.13788 27.0248,-22.54279 0.922,-0.60824 1.0955,-1.7717 0.3713,-2.6057 -2.3629,-2.72107 -6.5617,-7.48935 -7.9091,-8.97837 -7.3244,-8.09465 -12.2696,-20.03895 -12.2851,-39.50184 -0.011,-13.95999 0.2554,-27.0787 0.2554,-27.0787 -0.3485,-13.80203 10.5574,-25.27362 24.3594,-25.62305 z" />
    <path
       style="color:#000000;display:inline;fill:#000000;stroke-linecap:round;-inkscape-stroke:none"
       d="m 1274.3788,574.99589 c 13.8067,0.14488 24.8816,11.45506 24.7363,25.26172 -0.1449,13.80592 -11.4539,24.88057 -25.2598,24.73633 l -51.8925,-0.51172 -45.8907,0.51172 c -13.8059,0.14418 -25.1148,-10.93045 -25.2597,-24.73633 -0.1453,-13.80666 10.9296,-25.11684 24.7363,-25.26172 l 46.4434,-0.48437 c 17.4586,-0.0176 34.9263,0.30838 52.3867,0.48437 z"
       id="path845-2" />
    <path
       id="path845-5"
       style="color:#000000;fill:#000000;stroke-linecap:round;-inkscape-stroke:none"
       d="m 1191.9434,674.45898 c -6.9022,-0.13013 -25.2061,10.71912 -25.4668,24.52344 -0.2603,13.80431 10.7191,25.20604 24.5234,25.4668 11.3219,0.12553 22.6431,0.67745 33.9648,0.62305 11.3217,-0.0544 22.6424,-0.40916 33.9629,-0.62305 13.8043,-0.2607 24.7838,-11.66245 24.5235,-25.4668 -0.2607,-13.80432 -11.6625,-24.7837 -25.4668,-24.52344 0,0 -22.0139,0.0245 -33.0207,0.0245 -11.0068,0 -26.1181,0.10565 -33.0203,-0.0245 z" />
  </g>
</svg>
