<?xml version="1.0" encoding="UTF-8" standalone="no"?>
<!-- Created with Inkscape (http://www.inkscape.org/) -->

<svg
   width="59.399849mm"
   height="28.354786mm"
   viewBox="0 0 59.399849 28.354785"
   version="1.1"
   id="svg1"
   xmlns="http://www.w3.org/2000/svg"
   xmlns:svg="http://www.w3.org/2000/svg">
  <defs
     id="defs1">
    <clipPath
       clipPathUnits="userSpaceOnUse"
       id="clipPath172">
      <path
         d="M 0,800 H 1280 V 0 H 0 Z"
         transform="translate(-177.87111,-653.37942)"
         id="path172" />
    </clipPath>
    <clipPath
       clipPathUnits="userSpaceOnUse"
       id="clipPath174">
      <path
         d="M 0,800 H 1280 V 0 H 0 Z"
         transform="translate(-205.57231,-715.90872)"
         id="path174" />
    </clipPath>
    <clipPath
       clipPathUnits="userSpaceOnUse"
       id="clipPath176">
      <path
         d="M 0,800 H 1280 V 0 H 0 Z"
         transform="translate(-231.92191,-706.81052)"
         id="path176" />
    </clipPath>
    <clipPath
       clipPathUnits="userSpaceOnUse"
       id="clipPath179">
      <path
         d="M 0,800 H 1280 V 0 H 0 Z"
         transform="matrix(1.3333333,0,0,-1.3333333,0,1066.6667)"
         id="path179" />
    </clipPath>
    <clipPath
       clipPathUnits="userSpaceOnUse"
       id="clipPath177">
      <path
         d="M 79.5635,709.979 H 116.503 V 667.161 H 79.5635 Z"
         transform="translate(-116.3169,-671.30371)"
         id="path177" />
    </clipPath>
    <clipPath
       clipPathUnits="userSpaceOnUse"
       id="clipPath181">
      <path
         d="M 0,800 H 1280 V 0 H 0 Z"
         transform="translate(-145.1016,-712.30862)"
         id="path181" />
    </clipPath>
    <clipPath
       clipPathUnits="userSpaceOnUse"
       id="clipPath183">
      <path
         d="M 0,800 H 1280 V 0 H 0 Z"
         transform="translate(-245.75001,-687.20902)"
         id="path183" />
    </clipPath>
  </defs>
  <g
     id="layer1"
     transform="translate(-91.545832,-164.04167)">
    <path
       id="path171"
       d="m 0,0 c -0.9,1.321 -4.206,0.378 -4.62,0.249 -0.402,-0.142 -1.934,-0.27 -2.332,-0.285 -1.861,-0.036 -2.872,0.237 -4.931,0.165 -1.575,-0.048 -2.931,-0.4 -5.521,-0.696 -1.415,-0.163 -3.306,-0.721 -3.891,0.119 -0.286,0.448 -0.182,1.982 0.145,3.28 0.493,2.029 0.749,3.609 0.976,6.29 0.287,2.655 0.685,5.688 0.84,8.411 0.261,4.393 0.352,8.558 0.371,12.946 0.005,5.44 0.283,10.998 0.06,16.475 -0.141,3.397 -0.548,7.81 -1.63,13.84 -0.254,1.417 -0.512,3.15 -0.701,5.913 -0.077,2.831 -0.589,6.239 -0.944,7.197 -0.33,0.886 -0.739,1.192 -0.955,1.297 -0.683,0.309 -1.493,0.342 -2.058,-0.483 -0.598,-0.85 -0.603,-1.664 -0.278,-2.739 0.723,-2.333 1.422,-4.27 1.745,-6.841 0.285,-2.455 0.624,-4.981 0.908,-7.353 0.369,-3.08 0.938,-6.774 1.034,-8.167 0.129,-1.85 0.196,-4.27 0.177,-7.423 -0.012,-3.466 -0.12,-7.03 -0.218,-10.501 -0.142,-5.144 -0.319,-11.221 -0.486,-14.653 -0.101,-2.162 -0.258,-4.027 -0.453,-6.54 -0.193,-2.501 -0.461,-4.153 -0.821,-6.229 -0.401,-2.35 -0.838,-3.494 -1.096,-4.839 -0.265,-1.346 -0.443,-2.372 0.383,-3.526 0.69,-0.969 1.834,-1.015 3.906,-0.723 3.529,0.531 5.499,1.477 8.273,1.513 3.404,0.021 4.648,0.059 6.695,-0.319 1.051,-0.189 2.037,-0.591 3.182,-0.612 1.716,-0.039 2.895,-0.084 3.073,1.544 C 1.01,-1.051 0,0 0,0"
       style="fill:#000000;fill-opacity:1;fill-rule:nonzero;stroke:none"
       transform="matrix(0.35277776,0,0,-0.35277776,126.22657,190.64186)"
       clip-path="url(#clipPath172)" />
    <path
       id="path173"
       d="m 0,0 c -0.701,0.211 -2.722,0.436 -4.272,-0.402 -1.365,-0.627 -3.375,-0.601 -3.816,-0.601 -3.358,-0.036 -4.691,-0.179 -8.055,-0.141 -1.441,0.012 -1.711,0.531 -1.852,2.135 -0.198,2.264 -0.036,2.949 -0.323,5.214 -0.119,0.888 -0.269,2.008 -0.579,2.834 -0.403,1.074 -1.145,1.345 -1.954,0.933 -0.849,-0.438 -1.977,-2.101 -1.304,-3.413 1.008,-2.136 2.338,-4.907 2.017,-6.985 -0.21,-1.39 -2.57,1.417 -3.262,-1.982 -0.164,-0.79 -0.146,-1.771 0.491,-1.994 0.737,-0.273 1.297,-0.069 1.97,-0.081 0.869,-0.027 0.979,-1.819 1.014,-2.645 0.099,-2.42 0.262,-4.448 0.307,-6.868 0.064,-3.681 0.323,-7.432 0.265,-11.116 -0.081,-5.555 -0.1,-10.771 -0.543,-16.2 -0.112,-3.979 0.012,-5.275 -0.713,-9.182 -1.008,-5.415 0.113,-5.805 0.206,-8.649 0.041,-1.12 0.862,-1.569 1.659,-1.84 0.366,-0.129 1.285,0.223 1.716,0.658 0.438,0.438 0.806,2.504 0.366,4.014 -0.373,1.264 -1.003,3.174 -0.922,4.781 0.097,4.342 0.242,5.108 0.604,9.344 0.484,5.784 0.596,11.552 0.512,17.369 -0.098,6.515 -0.335,13.347 -1.116,20.214 0.29,0.52 5.151,0.826 5.308,0.826 2.86,0.201 4.464,0.096 7.372,-0.081 0.589,-0.039 2.302,-0.544 3.04,-0.579 2.671,-0.106 3.085,1.534 2.972,2.596 C 0.984,-0.637 0.508,-0.318 0,0"
       style="fill:#000000;fill-opacity:1;fill-rule:nonzero;stroke:none"
       transform="matrix(0.35277776,0,0,-0.35277776,135.99894,168.58291)"
       clip-path="url(#clipPath174)" />
    <path
       id="path175"
       d="m 0,0 c -1.026,-0.297 -2.09,-0.567 -3.114,-0.742 -4.555,-0.783 -11.93,-1.499 -13.012,0.835 -0.478,1.171 -0.268,2.267 0.036,4.237 0.319,2.03 0.137,3.693 -0.484,5.462 -0.436,1.24 -1.309,1.69 -2.719,0.781 -0.726,-0.46 -1.094,-2.24 -0.691,-3.433 1.541,-4.086 1.134,-3.458 1.067,-6.867 -3.114,0.694 -3.82,-0.829 -3.682,-2.056 0.254,-2.135 1.152,-1.685 2.662,-1.815 1.103,-0.119 1.063,-1.17 1.092,-2.056 0.091,-2.595 0.095,-3.928 0.058,-4.943 -0.047,-1.299 -0.13,-3.14 -0.199,-3.987 -0.243,-2.832 -0.261,-3.718 -0.395,-4.898 -0.283,-2.492 -0.633,-4.069 -0.857,-7.291 -0.287,-4.261 -0.094,-8.545 0.013,-12.804 0.035,-1.429 0.341,-2.903 1.593,-3.765 1.115,-0.781 2.054,-0.318 2.417,1.144 0.426,1.724 0.45,3.399 0.104,5.182 -0.455,2.358 -0.805,4.778 -0.906,7.196 0.007,0.922 -0.011,1.05 0.015,2.231 0.033,1.522 0.292,3.032 0.398,4.555 0.19,2.738 0.373,4.048 0.498,6.784 0.272,5.773 -0.302,6.867 -0.226,8.815 0.072,1.556 0.048,1.736 0.627,2.456 1.887,1.604 5.085,1.061 7.498,1.015 2.967,-0.072 5.906,-0.946 8.913,-1.3 0.805,-0.105 1.292,-0.012 1.547,0.592 0.421,1.012 0.353,1.615 0.119,2.901 C 2.183,-0.769 1.74,0.507 0,0"
       style="fill:#000000;fill-opacity:1;fill-rule:nonzero;stroke:none"
       transform="matrix(0.35277776,0,0,-0.35277776,145.29449,171.79256)"
       clip-path="url(#clipPath176)" />
    <g
       id="g178"
       clip-path="url(#clipPath179)"
       transform="matrix(0.26458333,0,0,0.26458333,63.477597,138.91737)"
       style="fill:#000000;fill-opacity:1">
      <path
         d="m 0,0 c 0.302,-1.269 0.302,-2.296 -0.483,-3.564 -0.665,-0.967 -1.873,-0.484 -2.538,-0.242 -1.027,0.302 -1.933,1.148 -2.96,1.691 -1.45,0.725 -2.961,1.39 -4.411,2.115 -2.114,0.906 -4.35,1.994 -7.25,3.202 -3.625,1.45 -7.25,3.202 -10.875,4.592 -1.933,1.087 -4.35,1.691 -6.404,1.994 -0.967,0.181 -1.571,0.664 -1.752,1.57 -0.121,0.846 -0.242,1.934 0.725,2.84 0.604,0.544 3.142,1.148 4.652,2.779 2.115,2.235 5.377,4.834 7.612,6.888 2.719,2.477 5.438,4.652 8.157,7.068 1.389,1.269 3.202,2.961 4.652,4.169 0.846,0.665 1.752,1.873 2.538,2.598 1.087,0.967 2.416,1.269 3.383,0.664 0.906,-0.604 1.027,-2.477 0.362,-3.383 -0.362,-0.543 -2.115,-1.691 -2.597,-2.114 -4.653,-3.625 -7.794,-5.74 -11.117,-8.64 -3.021,-2.658 -6.163,-5.075 -9.123,-7.915 -0.786,-0.845 -3.323,-2.598 -3.323,-3.504 0.06,-0.846 1.39,-1.087 2.779,-1.631 1.45,-0.544 3.323,-1.269 4.713,-1.933 2.477,-1.027 4.168,-1.632 6.162,-2.538 2.417,-1.027 3.565,-1.45 5.256,-2.175 1.632,-0.664 3.565,-1.51 5.257,-2.175 C -5.559,1.934 -4.229,1.571 -3.202,1.208 -2.477,0.967 -1.269,0.846 -0.604,0.604 -0.363,0.483 -0.061,0.181 0,0"
         style="fill:#000000;fill-opacity:1;fill-rule:nonzero;stroke:none"
         transform="matrix(1.3333333,0,0,-1.3333333,155.0892,171.59507)"
         clip-path="url(#clipPath177)"
         id="path178" />
    </g>
    <path
       id="path180"
       d="m 0,0 c -1.945,-0.814 -3.19,-0.943 -4.838,-1.144 -1.965,-0.258 -5.823,-0.39 -7.781,0 -1.953,0.39 -3.5,1.168 -4.342,1.096 -0.927,-0.069 -1.735,-0.718 -2.126,-1.889 -0.359,-1.082 -0.307,-2.252 -0.069,-2.783 0.295,-0.658 0.922,-1.463 1.175,-2.312 0.299,-0.991 0.641,-3.138 0.807,-4.544 0.472,-3.906 0.72,-6.738 1.031,-11.173 0.297,-3.99 0.327,-8.555 0.168,-12.39 -0.113,-2.597 -0.326,-3.375 -0.361,-4.462 -0.094,-2.573 -0.108,-3.375 0.248,-5.756 0.219,-1.441 0.666,-1.927 1.298,-2.185 0.696,-0.283 2.319,-0.259 2.879,0.201 0.465,0.402 1.216,0.943 1.125,2.75 -0.062,1.319 -0.698,3.975 -1.609,6.027 -0.902,2.068 -0.626,9.939 -0.722,13.206 -0.091,3.255 -0.675,9.734 -1.082,13.062 -0.459,3.633 -1.101,6.338 -0.608,7.164 0.786,1.298 4.323,1.027 6.831,1.18 2.308,0.151 4.448,-0.189 6.59,-0.709 1.965,-0.485 3.069,-0.531 3.794,0.544 0.718,1.084 0.528,2.43 0,3.538 C 1.881,0.531 0.793,0.415 0,0"
       style="fill:#000000;fill-opacity:1;fill-rule:nonzero;stroke:none"
       transform="matrix(0.35277776,0,0,-0.35277776,114.66622,169.85295)"
       clip-path="url(#clipPath181)" />
    <path
       id="path182"
       d="M 0,0 C -1.084,0.012 -2.164,-1.19 -2.184,-2.43 -2.212,-3.964 -0.943,-5.51 0.369,-5.532 1.34,-5.556 2.166,-4.483 2.19,-3.15 2.227,-1.403 1.252,0 0,0"
       style="fill:#000000;fill-opacity:1;fill-rule:nonzero;stroke:none"
       transform="matrix(0.35277776,0,0,-0.35277776,150.17274,178.70753)"
       clip-path="url(#clipPath183)" />
  </g>
</svg>
